<?xml version="1.0" encoding="utf-8"?>
<!-- Generator: Adobe Illustrator 25.4.1, SVG Export Plug-In . SVG Version: 6.00 Build 0)  -->
<svg version="1.1" id="レイヤー_1" xmlns="http://www.w3.org/2000/svg" xmlns:xlink="http://www.w3.org/1999/xlink" x="0px"
	 y="0px" viewBox="0 0 216 216" style="enable-background:new 0 0 216 216;" xml:space="preserve">
<style type="text/css">
	.st0{fill:#C2FF30;}
	.st1{enable-background:new    ;}
	.st2{fill:#006FDB;}
</style>
<circle class="st0" cx="108" cy="108" r="108"/>
<g class="st1">
	<path class="st2" d="M33.2,99c0.5-1.7,1.4-3,2.7-3.8c1.2-0.7,2.6-1.1,4.2-1.1c2.2,0,4,0.6,5.2,1.8c1.1,1,1.6,2.3,1.6,3.9
		c0,1.5-0.4,2.7-1.3,3.6c-0.8,0.8-1.8,1.3-3.1,1.6v0.2c1.7,0.4,2.9,1.1,3.7,2.2c0.7,1,1.1,2.2,1.1,3.6c0,2.2-0.8,3.9-2.3,5.2
		c-1.3,1.1-3,1.7-5,1.7c-3.9,0-6.3-1.7-7.3-5.1l3.7-1.1c0.3,1.2,0.7,2.1,1.4,2.6c0.5,0.4,1.3,0.7,2.2,0.7c1.2,0,2.1-0.4,2.7-1.2
		c0.6-0.7,0.8-1.6,0.8-2.7c0-2.8-1.5-4.1-4.4-4.1h-1.7v-3.1H39c2.8,0,4.2-1.2,4.2-3.6c0-1.1-0.3-1.9-1-2.5C41.7,97.2,41,97,40.1,97
		s-1.6,0.3-2.2,0.9c-0.5,0.5-0.9,1.3-1,2.3L33.2,99z"/>
	<path class="st2" d="M54.9,102.4c1.2-0.1,3.1-0.7,5.8-1.6c4.9-1.7,8.5-2.5,10.8-2.5c2.9,0,5.1,0.8,6.7,2.5c1.4,1.4,2.1,3.3,2.1,5.5
		c0,2.1-0.5,3.8-1.5,5.2c-0.8,1.2-2.1,2.2-3.8,3.1c-1.2,0.7-2.5,1.2-4,1.6c-0.7,0.2-1.9,0.5-3.6,0.9c-0.2,0-0.3,0.1-0.4,0.1
		c-0.3,0-0.5-0.2-0.6-0.5c-0.4-0.9-1.1-1.7-2.1-2.4c3.6-0.6,6.3-1.3,8.1-2.2c2.8-1.4,4.1-3.4,4.1-6c0-1.5-0.5-2.7-1.5-3.5
		c-0.9-0.7-2.1-1.1-3.6-1.1c-2.5,0-6.2,1-10.8,3.1c-1.3,0.6-1.9,1-2.1,1.1c-0.4,0.3-0.6,0.5-0.8,0.5c-0.3,0-0.6-0.2-0.9-0.6
		C56.2,104.7,55.6,103.7,54.9,102.4z"/>
	<path class="st2" d="M104.5,98.9c-0.8,5.6-2,9.9-3.8,12.9c-1.3,2.3-3,3.5-5.1,3.5c-1.5,0-2.8-0.8-3.8-2.3c-1-1.4-1.5-3.3-1.5-5.4
		c0-2.9,1.1-5.5,3.4-7.8c2.6-2.6,5.8-3.8,9.8-3.8c3.8,0,6.7,1.1,8.8,3.3c1.8,1.9,2.6,4.2,2.6,7.1c0,5.4-3.1,9.1-9.2,10.9
		c-0.2,0-0.3,0.1-0.4,0.1c-0.3,0-0.6-0.2-0.8-0.6c-0.4-0.7-1.1-1.3-2.1-1.9c3.1-0.7,5.3-1.8,6.7-3.1c1.5-1.5,2.3-3.4,2.3-5.9
		c0-2-0.7-3.7-2.1-5.1c-1.3-1.3-2.8-1.9-4.6-1.9C104.7,98.9,104.5,98.9,104.5,98.9z M101,99.1c-2.1,0.4-3.8,1.3-5.1,2.7
		c-1.6,1.8-2.3,3.6-2.3,5.6c0,1.4,0.2,2.5,0.7,3.3c0.4,0.6,0.8,1,1.3,1c0.8,0,1.6-0.6,2.3-1.8c0.7-1.3,1.4-3.1,2-5.2
		C100.4,102.7,100.8,100.9,101,99.1z"/>
	<path class="st2" d="M147.9,112.2c0.7,0.4,1.4,0.7,2.1,1c0.5,0.1,0.8,0.4,0.8,0.7c0,0.1,0,0.3,0,0.5c-0.3,1.8-0.9,3-1.8,3.7
		c-0.6,0.5-1.7,0.8-3.2,0.9c-1.2,0.1-3,0.2-5.5,0.2c-2.9,0-4.9,0-5.9-0.1s-1.7-0.2-2.2-0.4c-1.1-0.4-1.6-1.5-1.6-3.1v-8.7h-1.3
		c0,3.1-0.4,5.7-1.3,7.8c-0.6,1.5-1.6,2.9-2.8,4.4c-0.3,0.3-0.5,0.5-0.6,0.5s-0.3-0.2-0.4-0.5c-0.3-0.8-0.7-1.5-1.2-1.9
		c1.3-1.3,2.3-2.6,2.8-4c0.6-1.6,1-3.7,1-6.3c-0.6,0-1.1,0-1.6,0c-0.3,0-0.5,0-0.5,0c-0.2,0-0.3,0-0.3-0.1s0-0.1,0-0.3l0.1-2.9v-5.2
		l-0.1-2.9c0-0.2,0-0.2,0.1-0.3s0.1,0,0.3,0l3.4,0.1h0.1c0.2-0.4,0.4-0.9,0.6-1.6c0.2-0.5,0.3-1.1,0.4-1.7c1,0.1,1.9,0.2,2.8,0.4
		c0.3,0.1,0.4,0.2,0.4,0.3c0,0.2-0.1,0.3-0.2,0.5c-0.2,0.2-0.3,0.4-0.4,0.7c-0.1,0.1-0.2,0.4-0.4,0.8c-0.1,0.3-0.2,0.5-0.3,0.7h1.6
		l3.3-0.1c0.2,0,0.3,0,0.3,0.1s0,0.1,0,0.3l-0.1,2.9v5.2l0.1,2.9c0,0.2,0,0.3-0.1,0.3s-0.1,0-0.3,0c0,0-0.3,0-0.8,0
		c-0.6,0-1.2,0-1.9,0v8c0,0.5,0.1,0.9,0.2,1.1c0.1,0.1,0.3,0.3,0.5,0.3c0.7,0.2,2.8,0.4,6.5,0.4c3.8,0,6-0.3,6.7-0.9
		c0.3-0.3,0.6-0.8,0.7-1.4C147.7,113.9,147.8,113.2,147.9,112.2z M126.8,99.8h2.2v-2.3h-2.2V99.8z M126.8,104.6h2.2V102h-2.2V104.6z
		 M133.6,97.4h-2.3v2.3h2.3V97.4z M133.6,104.6V102h-2.3v2.7L133.6,104.6L133.6,104.6z M137.7,110.7c0.5,0.9,1,2.1,1.5,3.6
		c0,0.1,0,0.2,0,0.2c0,0.1-0.1,0.2-0.3,0.3l-0.8,0.4c-0.1,0.1-0.2,0.1-0.3,0.1s-0.1-0.1-0.2-0.3l-0.2-0.7c-0.9,0.3-1.8,0.5-2.6,0.7
		c-0.4,0.1-0.6,0.2-0.8,0.3c-0.1,0.1-0.2,0.1-0.3,0.1s-0.2-0.1-0.2-0.3c-0.3-0.8-0.4-1.4-0.5-1.9h0.4c0.3-0.8,0.6-2,0.9-3.6
		c0.1-0.4,0.2-1,0.2-1.5c0.7,0.1,1.4,0.2,1.8,0.4c0.2,0.1,0.3,0.2,0.3,0.3c0,0.1-0.1,0.2-0.2,0.3c-0.1,0.1-0.2,0.3-0.3,0.8
		c-0.3,1.2-0.6,2.2-1,3.2c0.5-0.1,1-0.2,1.6-0.3c-0.2-0.5-0.4-0.9-0.6-1.3c0-0.1-0.1-0.2-0.1-0.2c0-0.1,0.1-0.2,0.3-0.2l0.7-0.3
		c0.1-0.1,0.2-0.1,0.3-0.1C137.5,110.4,137.6,110.5,137.7,110.7z M141.6,92.2c0.9,0,1.9,0.1,2.8,0.2c0.3,0,0.5,0.1,0.5,0.3
		c0,0.1-0.1,0.3-0.2,0.7c-0.1,0.3-0.2,1.3-0.2,3.1h1l3.3-0.1c0.2,0,0.2,0,0.3,0.1c0,0,0,0.1,0,0.3v2c0,0.2,0,0.2-0.1,0.3
		s-0.1,0-0.3,0l-3.3-0.1h-1v2.4h1.6l3.6-0.1c0.2,0,0.3,0,0.3,0.1c0,0,0,0.1,0,0.3v2c0,0.2,0,0.3-0.1,0.3c0,0-0.1,0-0.3,0l-3.6-0.1
		H145c1.5,2.3,3.4,4.1,5.8,5.6c-0.5,0.5-0.9,1.1-1.3,1.8c-0.2,0.5-0.4,0.7-0.5,0.7s-0.4-0.2-0.7-0.5c-1.8-1.8-3.2-3.7-4.3-5.7
		l0.2,9.2c0,0.2-0.1,0.3-0.3,0.3h-2.2c-0.2,0-0.3,0-0.3-0.1s0-0.1,0-0.3c0-0.1,0-1.4,0.1-3.7c0.1-2,0.1-3.7,0.1-5.1
		c-0.7,1.6-1.6,3.1-2.8,4.5c-0.2,0.3-0.4,0.5-0.5,0.5s-0.3-0.1-0.4-0.4c-0.3-0.5-0.7-1.1-1.3-1.6c1.7-1.5,3.1-3.2,4-5.2h-0.2
		l-3.6,0.1c-0.2,0-0.3,0-0.3-0.1c0,0,0-0.1,0-0.3v-2c0-0.2,0-0.2,0.1-0.3c0,0,0.1,0,0.3,0l3.6,0.1h1V99H141l-3.2,0.1
		c-0.2,0-0.3,0-0.3-0.1c0,0,0-0.1,0-0.3v-2c0-0.2,0-0.3,0.1-0.3c0,0,0.1,0,0.3,0l3.2,0.1h0.5V96C141.8,94.3,141.7,93.1,141.6,92.2z"
		/>
	<path class="st2" d="M179.8,101.9h-7.6c-0.2,2.9-0.7,5.3-1.5,7.2c-0.9,2.3-2.2,4.3-3.8,6c-1.4,1.4-3.1,2.7-5.3,3.8
		c-0.4,0.2-0.7,0.3-0.7,0.3c-0.2,0-0.4-0.2-0.7-0.6c-0.6-0.8-1.2-1.4-1.9-1.7c4.8-2.1,8-5.1,9.3-8.9c0.7-1.8,1.1-3.8,1.3-6h-4.7
		l-4,0.1c-0.2,0-0.3,0-0.3-0.1c0,0-0.1-0.1-0.1-0.3v-2.5c0-0.2,0-0.2,0.1-0.3c0,0,0.1,0,0.3,0l4,0.1h4.8v-2.6c0-1.5-0.1-2.8-0.3-4
		c1.6,0.1,2.7,0.2,3.5,0.3c0.4,0,0.6,0.2,0.6,0.4c0,0.2-0.1,0.5-0.3,0.7c-0.2,0.4-0.2,1.2-0.2,2.5c0,1.1,0,2,0,2.5h6.3l4.1-0.1
		c0.2,0,0.4,0.1,0.4,0.4c0,0.6-0.1,1.5-0.1,2.7c-0.1,5.8-0.4,10.2-0.9,13.2c-0.3,1.5-0.9,2.6-1.7,3.2c-0.8,0.5-1.8,0.8-3.3,0.8
		c-0.2,0-0.4,0-0.6,0c-0.7,0-1.5,0-2.3-0.1c-0.5,0-0.8-0.1-0.9-0.2c-0.1-0.1-0.2-0.4-0.2-0.8c-0.2-1-0.5-1.8-0.9-2.4
		c1.5,0.3,3,0.4,4.5,0.4c1.2,0,1.9-0.7,2.2-2C179.5,110.9,179.8,106.9,179.8,101.9z"/>
</g>
</svg>
