<?xml version="1.0" encoding="utf-8"?>
<!-- Generator: Adobe Illustrator 25.4.1, SVG Export Plug-In . SVG Version: 6.00 Build 0)  -->
<svg version="1.1" id="レイヤー_1" xmlns="http://www.w3.org/2000/svg" xmlns:xlink="http://www.w3.org/1999/xlink" x="0px"
	 y="0px" viewBox="0 0 216 216" style="enable-background:new 0 0 216 216;" xml:space="preserve">
<style type="text/css">
	.st0{fill:#C2FF30;}
	.st1{enable-background:new    ;}
	.st2{fill:#006FDB;}
</style>
<circle class="st0" cx="108" cy="108" r="108"/>
<g class="st1">
	<path class="st2" d="M41.8,112.8c3.1-0.9,5.4-1.9,7-3h-2.3l-3.8,0.1c-0.2,0-0.3-0.1-0.3-0.3v-1.8c0-0.2,0.1-0.3,0.3-0.3l3.8,0.1
		h4.9c0.4-0.5,0.8-1,1.1-1.6H51l-4.1,0.1c-0.2,0-0.3,0-0.3-0.1c0,0,0-0.1,0-0.3l0.1-2.3v-2.5l-0.1-2.3c0-0.2,0-0.3,0.1-0.3
		s0.1,0,0.3,0l4.1,0.1h9.7l4.1-0.1c0.2,0,0.3,0,0.3,0.1s0,0.1,0,0.3l-0.1,2.3v2.5l0.1,2.3c0,0.2,0,0.3-0.1,0.3c0,0-0.1,0-0.3,0
		l-4.1-0.1h-6.5l1,0.2c0.3,0.1,0.5,0.2,0.5,0.4s-0.1,0.3-0.4,0.4c-0.2,0.1-0.4,0.3-0.6,0.5H65l3.8-0.1c0.2,0,0.3,0,0.3,0.1
		c0,0,0,0.1,0,0.3v1.8c0,0.1,0,0.2-0.1,0.3s-0.1,0.1-0.3,0.1l-3.8-0.1h-2.1c1.6,0.9,3.9,1.8,7,2.4c-0.4,0.5-0.8,1.1-1.1,1.8
		c-0.2,0.5-0.4,0.8-0.6,0.8c0,0-0.2-0.1-0.7-0.2c-1.2-0.4-2.3-0.8-3.5-1.4c-0.1,0.8-0.2,1.4-0.2,1.8c-0.1,1.2-0.4,2.1-0.9,2.9
		c-0.6,1-1.7,1.4-3.3,1.4c-0.7,0-1.3,0-1.7-0.1c-0.4,0-0.6-0.1-0.7-0.2c-0.1-0.1-0.2-0.3-0.3-0.7c-0.2-0.6-0.5-1.3-0.8-1.9
		c1.1,0.2,2.1,0.2,3.1,0.2c0.7,0,1.1-0.2,1.3-0.6s0.3-1.1,0.5-2h-5c-0.6,1.2-1.5,2.2-2.6,3c-1.5,1.1-3.7,1.9-6.5,2.3
		c-0.3,0.1-0.5,0.1-0.7,0.1s-0.4-0.2-0.6-0.7c-0.2-0.5-0.5-1.1-1-1.7c3.4-0.3,5.8-0.9,7.1-1.9c0.4-0.3,0.8-0.7,1.1-1.1h-0.4
		l-3.9,0.1c-0.2,0-0.3,0-0.3-0.1c0,0,0-0.1,0-0.3v-1c-1.1,0.6-2.4,1.3-3.8,1.8c-0.4,0.2-0.6,0.2-0.7,0.2c-0.2,0-0.4-0.2-0.7-0.7
		C42.6,113.7,42.2,113.2,41.8,112.8z M49.8,92.1c1.1,0,2.1,0.1,2.8,0.2c0.3,0,0.4,0.1,0.4,0.3c0,0,0,0.2-0.1,0.4
		c-0.1,0.3-0.1,0.6-0.1,1h5.9c0-0.9-0.1-1.5-0.1-1.9c1.1,0,2.1,0.1,2.8,0.2c0.3,0,0.4,0.1,0.4,0.3c0,0,0,0.2-0.1,0.4
		c-0.1,0.3-0.2,0.6-0.2,1H65l3.8-0.1c0.2,0,0.3,0,0.3,0.1c0,0,0,0.1,0,0.3v1.8c0,0.2,0,0.3-0.1,0.3c0,0-0.1,0-0.3,0l-3.7,0h-3.5
		c0,0.1,0,0.3,0.1,0.7c0,0.2,0,0.3,0,0.3c0,0.2,0,0.3-0.1,0.3c0,0-0.1,0-0.3,0H59c-0.2,0-0.3,0-0.3-0.1c0,0,0-0.1,0-0.3v-1h-5.8
		c0,0.1,0,0.4,0,0.7c0,0.2,0,0.3,0,0.3c0,0.2,0,0.3-0.1,0.3c0,0-0.1,0-0.3,0h-2.2c-0.2,0-0.3,0-0.3-0.1c0,0,0-0.1,0-0.3v-1h-3.3
		l-3.8,0.1c-0.2,0-0.3,0-0.3-0.1c0,0,0-0.2,0-0.3v-1.8c0-0.2,0-0.2,0.1-0.3s0.1,0,0.3,0l3.8,0.1h3.3C49.9,93.1,49.8,92.5,49.8,92.1z
		 M62,100.1H49.5v1.2H62V100.1z M62,104.2V103H49.5v1.2H62z M56.7,112.1h5.4c-1-0.7-1.9-1.4-2.7-2.3h-6.7c-0.8,0.8-1.8,1.6-2.9,2.3
		h4.1c0.1-0.7,0.2-1.2,0.2-1.7c0-0.1,0-0.1,0-0.2c0.4,0,0.9,0.1,1.5,0.1s1,0.1,1.2,0.1c0.4,0.1,0.5,0.2,0.5,0.3
		c0,0.1-0.1,0.2-0.2,0.5C57,111.3,56.9,111.6,56.7,112.1z"/>
	<path class="st2" d="M81.6,112.5l-3.8,0.1c-0.2,0-0.3,0-0.3-0.1c0,0,0-0.1,0-0.3v-1.9c0-0.2,0.1-0.3,0.3-0.3l3.8,0.1h7.3V110
		c0-0.7,0-1.2,0-1.5h-3.7l-4.2,0.1c-0.2,0-0.2,0-0.3-0.1c0,0,0-0.1,0-0.3l0.1-3.4v-4.7c-0.6,0.6-1.2,1.1-1.8,1.7
		c-0.3,0.3-0.5,0.4-0.6,0.4s-0.3-0.2-0.5-0.6c-0.3-0.7-0.8-1.2-1.2-1.7c2.3-1.5,4.1-3.5,5.5-5.8c0.4-0.7,0.6-1.3,0.8-1.9
		c1,0.2,2,0.4,2.8,0.7c0.3,0.1,0.4,0.2,0.4,0.4c0,0.2-0.1,0.3-0.3,0.5c-0.3,0.2-0.5,0.6-0.8,1l-0.5,0.7H90c0.4-0.6,0.6-1.1,0.8-1.6
		c0.2-0.5,0.4-1,0.5-1.6c1,0.2,1.9,0.4,2.8,0.6c0.2,0.1,0.4,0.2,0.4,0.4c0,0.1-0.1,0.3-0.3,0.4c-0.2,0.2-0.4,0.4-0.6,0.8
		c-0.3,0.5-0.4,0.8-0.5,0.9h4.6l4.1-0.1c0.2,0,0.3,0.1,0.3,0.3v1.8c0,0.2,0,0.3-0.1,0.3c0,0-0.1,0-0.3,0l-4.1-0.1h-5.2V99h3.8l4-0.1
		c0.2,0,0.3,0,0.3,0.1c0,0,0.1,0.1,0.1,0.3v1.5c0,0.2,0,0.2-0.1,0.3c0,0-0.1,0-0.3,0l-4-0.1h-3.8v1.5h3.8l4-0.1c0.2,0,0.3,0,0.3,0.1
		c0,0,0.1,0.1,0.1,0.3v1.5c0,0.2,0,0.2-0.1,0.3c0,0-0.1,0-0.3,0l-4-0.1h-3.8v1.6H98l4.1-0.1c0.2,0,0.2,0,0.3,0.1s0,0.1,0,0.3v1.7
		c0,0.2,0,0.3-0.1,0.3s-0.1,0.1-0.3,0.1l-4.1-0.1h-5.8l-0.1,0.2c-0.1,0.1-0.1,0.6-0.1,1.3v0.2h7.6l3.8-0.1c0.2,0,0.3,0.1,0.3,0.3
		v1.9c0,0.1,0,0.2-0.1,0.3s-0.1,0.1-0.3,0.1l-3.8-0.1h-5.6c2.6,1.8,6.1,3,10.4,3.8c-0.5,0.5-0.9,1.2-1.2,2c-0.2,0.5-0.4,0.8-0.6,0.8
		c-0.1,0-0.3,0-0.7-0.1c-4.2-1.3-7.5-3-9.9-5.3l0.1,5.7c0,0.2-0.1,0.3-0.3,0.3H89c-0.2,0-0.3-0.1-0.3-0.3c0,0,0-0.7,0-2
		c0-1.2,0.1-2.4,0.1-3.6c-2.2,2.2-5.4,3.9-9.7,5.2c-0.4,0.1-0.7,0.2-0.7,0.2c-0.2,0-0.4-0.3-0.6-0.8c-0.3-0.7-0.6-1.3-1.1-1.8
		c4.3-1,7.6-2.3,10-4h-5.1V112.5z M83.6,99h6.1v-1.5h-6.1V99z M83.6,102.5h6.1V101h-6.1V102.5z M83.6,106.1h6.1v-1.6h-6.1V106.1z"/>
	<path class="st2" d="M115.8,110.6l-3.7,0.1c-0.2,0-0.3-0.1-0.3-0.3v-2.1c0-0.2,0.1-0.3,0.3-0.3l3.7,0.1h4.8
		c0.5-0.7,0.8-1.5,1.2-2.4c1,0.1,2,0.2,2.9,0.5c0.3,0.1,0.5,0.2,0.5,0.4c0,0.2-0.1,0.3-0.3,0.5s-0.5,0.5-0.9,1.1h10.8l3.7-0.1
		c0.2,0,0.3,0.1,0.3,0.3v2.1c0,0.2-0.1,0.3-0.3,0.3l-3.7-0.1h-2.7c-0.7,1.3-1.5,2.5-2.5,3.6c2.2,0.7,4.6,1.6,7.2,2.8
		c0.2,0.1,0.2,0.1,0.2,0.2s-0.1,0.2-0.2,0.3l-1.5,1.7c-0.2,0.2-0.4,0.4-0.4,0.4s-0.1,0-0.2-0.1c-2.6-1.4-5.1-2.5-7.5-3.3
		c-2.8,1.9-7,3-12.6,3.4c-0.3,0-0.4,0-0.5,0c-0.2,0-0.4-0.1-0.5-0.2s-0.2-0.3-0.3-0.7c-0.2-0.6-0.6-1.2-1-1.8
		c4.8-0.1,8.6-0.7,11.2-1.9c-0.7-0.2-2-0.5-3.8-0.9c0,0-0.1,0.2-0.3,0.4c-0.2,0.2-0.3,0.3-0.5,0.3c-0.1,0-0.2,0-0.3,0l-2.2-0.5
		c-0.2,0-0.2-0.1-0.2-0.2s0-0.1,0.1-0.2l0.7-0.9c0.4-0.5,0.8-1,1.1-1.4l0.8-1.1C118.9,110.6,115.8,110.6,115.8,110.6z M116.2,96
		l-3.8,0.1c-0.2,0-0.3,0-0.3-0.1c0,0,0-0.1,0-0.3v-2.1c0-0.2,0-0.2,0.1-0.3c0,0,0.1,0,0.3,0l3.8,0.1h18.2l3.8-0.1
		c0.2,0,0.3,0,0.3,0.1c0,0,0,0.1,0,0.3v2.1c0,0.2,0,0.2-0.1,0.3s-0.1,0-0.3,0l-3.8-0.1h-4.7v2.1h1.9l4.2-0.1c0.2,0,0.3,0,0.3,0.1
		s0,0.1,0,0.3l-0.1,2.2v2.4l0.1,2.2c0,0.2,0,0.3-0.1,0.3s-0.1,0-0.3,0l-4.2-0.1H119l-4.2,0.1c-0.2,0-0.2,0-0.3-0.1s0-0.1,0-0.3
		l0.1-2.2v-2.4l-0.1-2.2c0-0.2,0-0.3,0.1-0.3s0.1,0,0.3,0l4.2,0.1h1.7V96H116.2z M117.5,103.3h3.1v-2.9h-3.1V103.3z M128.6,110.6
		h-6.2c-0.4,0.6-0.8,1.1-1.1,1.6c1.9,0.4,3.6,0.7,5.1,1.1C127.2,112.5,128,111.6,128.6,110.6z M123.5,98.1h3.3V96h-3.3V98.1z
		 M126.8,103.3v-2.9h-3.3v2.9H126.8z M133.1,103.3v-2.9h-3.4v2.9H133.1z"/>
	<path class="st2" d="M155.8,107.5c0,0.3,0,0.5,0,0.8c0,0.5,0,0.9,0.1,1.3c0,0.3,0,0.4,0,0.5c0,0.2,0,0.4-0.1,0.5s-0.3,0.2-0.6,0.4
		c-1.7,0.9-3.9,1.8-6.4,2.8c-0.4,0.1-0.7,0.3-0.9,0.5c-0.2,0.1-0.3,0.2-0.5,0.2s-0.3-0.1-0.4-0.4c-0.2-0.6-0.5-1.6-0.8-2.8
		c1.1-0.2,1.9-0.5,2.6-0.7l0.9-0.3V97.8h-0.1l-2.7,0.1c-0.1,0-0.2,0-0.3-0.1c0,0,0-0.1,0-0.3v-2.3c0-0.2,0.1-0.3,0.3-0.3l2.7,0.1
		h2.8l2.7-0.1c0.2,0,0.3,0,0.3,0.1c0,0,0,0.1,0,0.3v2.3c0,0.2,0,0.3-0.1,0.3c0,0-0.1,0-0.3,0l-2.3-0.1V109
		C153.7,108.5,154.7,108,155.8,107.5z M160.1,113.7c1,0.5,1.8,1,2.3,1.3c0.2,0.2,0.3,0.3,0.3,0.5s-0.1,0.3-0.4,0.4
		c-0.2,0.1-0.5,0.3-0.9,0.6c-1.5,1.1-3.4,2.1-5.8,2.9c-0.3,0.1-0.6,0.2-0.7,0.2c-0.2,0-0.4-0.2-0.7-0.7c-0.5-0.8-1-1.3-1.5-1.8
		c2.7-0.6,4.8-1.4,6.3-2.5C159.5,114.3,159.9,114,160.1,113.7z M160.4,96.3l-4,0.1c-0.2,0-0.3,0-0.3-0.1c0,0-0.1-0.1-0.1-0.2v-2.2
		c0-0.2,0-0.3,0.1-0.3c0,0,0.1,0,0.3,0l4,0.1h8.6l4-0.1c0.2,0,0.3,0,0.3,0.1c0,0,0,0.1,0,0.3v2c0,0.2-0.1,0.3-0.3,0.3l-4-0.1h-3.3
		c-0.2,0.5-0.5,1.1-0.9,2h2.7l3.8-0.1c0.2,0,0.3,0,0.3,0.1c0,0,0,0.1,0,0.3l-0.1,3.5v7.9l0.1,3.4c0,0.2,0,0.3-0.1,0.3
		s-0.1,0.1-0.3,0.1l-3.8-0.1h-6.1l-3.8,0.1c-0.2,0-0.3,0-0.3-0.1c0,0,0-0.1,0-0.3l0.1-3.4V102l-0.1-3.5c0-0.2,0-0.3,0.1-0.3
		s0.1,0,0.3,0l3.8,0.1h0.3c0.3-0.6,0.6-1.3,0.8-2C162.5,96.3,160.4,96.3,160.4,96.3z M168.5,100.7h-8.3v1.9h8.3V100.7z M160.3,106.9
		h8.3V105h-8.3V106.9z M168.5,111.1v-1.9h-8.3v1.9H168.5z M174.2,116.8c-0.2,0.2-0.7,0.9-1.5,2.1c-0.2,0.3-0.4,0.5-0.5,0.5
		s-0.4-0.1-0.8-0.3c-2.1-1-4-2.1-5.6-3.5c-0.1-0.1-0.2-0.2-0.2-0.2c0-0.1,0.1-0.2,0.3-0.3l1.6-1.2c0.1-0.1,0.2-0.1,0.3-0.1
		s0.2,0,0.3,0.1C169.6,115,171.6,116,174.2,116.8z"/>
</g>
</svg>
