<?xml version="1.0" encoding="utf-8"?>
<!-- Generator: Adobe Illustrator 25.4.1, SVG Export Plug-In . SVG Version: 6.00 Build 0)  -->
<svg version="1.1" id="レイヤー_1" xmlns="http://www.w3.org/2000/svg" xmlns:xlink="http://www.w3.org/1999/xlink" x="0px"
	 y="0px" viewBox="0 0 216 216" style="enable-background:new 0 0 216 216;" xml:space="preserve">
<style type="text/css">
	.st0{fill:none;}
	.st1{fill:none;stroke:#FFFFFF;stroke-width:6;}
	.st2{enable-background:new    ;}
	.st3{fill:#FFFFFF;}
</style>
<circle class="st0" cx="108" cy="108" r="108"/>
<circle class="st1" cx="108" cy="108" r="105"/>
<g class="st2">
	<path class="st3" d="M73.5,88.5c2.8,2.1,5.6,4.5,8.3,7.3c0.2,0.2,0.2,0.3,0.2,0.4s-0.1,0.3-0.2,0.4c-0.6,0.8-1.3,1.5-2,2.1
		c-0.1,0.1-0.2,0.2-0.4,0.2s-0.3-0.1-0.4-0.2c-2.3-2.6-4.9-5.1-7.8-7.4c-3.1,3.3-6.5,5.9-10.1,7.9c-0.4,0.2-0.6,0.2-0.7,0.2
		c-0.2,0-0.4-0.1-0.5-0.3c-0.6-0.7-1.4-1.3-2.5-2c2.4-1.2,4.5-2.5,6.2-3.8c1.4-1.1,2.9-2.3,4.4-3.9c2.1-2.2,4-4.7,5.6-7.5l-7.7,0
		c-1.5,0-3.1,0.1-4.7,0.2c-0.2,0-0.3-0.2-0.4-0.5c-0.2-0.8-0.3-1.8-0.3-3.1c1.1,0.1,2.8,0.1,5.1,0.1h8.2c1,0,1.7-0.1,2.1-0.3
		c0.1-0.1,0.2-0.1,0.3-0.1c0.1,0,0.3,0.1,0.5,0.2c0.6,0.5,1.3,1.2,1.9,2.1c0.1,0.2,0.1,0.3,0.1,0.4c0,0.2-0.1,0.4-0.4,0.6
		c-0.4,0.4-0.8,0.8-1.1,1.3C76.2,84.8,74.9,86.7,73.5,88.5z"/>
	<path class="st3" d="M102.3,90.5c1.3,1.1,2.4,2.1,3.2,3c0.1,0.1,0.2,0.3,0.2,0.4c0,0.1-0.1,0.3-0.2,0.4c-0.6,0.7-1.2,1.4-1.9,1.9
		c-0.1,0.1-0.3,0.1-0.4,0.1c-0.1,0-0.2-0.1-0.3-0.2c-0.8-1-1.8-1.9-2.9-2.9c-2.9,3.1-6,5.6-9.6,7.5c-0.3,0.2-0.6,0.3-0.7,0.3
		s-0.4-0.1-0.6-0.3c-0.8-0.6-1.7-1.2-2.9-1.5c2.5-1.3,4.6-2.6,6.3-3.9c1.6-1.2,3.1-2.6,4.7-4.3c-1.3-1-2.7-2-4.3-2.8
		c1.2-1.3,1.9-2,2-2.1c0.1-0.1,0.3-0.2,0.4-0.2c0,0,0.1,0,0.3,0.1c0.9,0.4,2.1,1.2,3.9,2.4c1.3-1.7,2.5-3.7,3.5-5.9l-7.4,0.1
		c-2.4,3.1-4.5,5.3-6.4,6.8c-0.3,0.2-0.5,0.3-0.6,0.3c-0.2,0-0.3-0.1-0.5-0.2c-0.7-0.5-1.5-1-2.5-1.4c2.1-1.7,3.9-3.4,5.3-5
		c1.1-1.3,2.2-2.7,3.2-4.4c0.9-1.5,1.4-2.7,1.6-3.7c1.8,0.6,3,1.1,3.5,1.5c0.2,0.1,0.3,0.3,0.3,0.5c0,0.2-0.1,0.4-0.4,0.6
		c-0.2,0.1-0.4,0.4-0.6,0.6c-0.2,0.4-0.5,0.9-0.9,1.5l5.3-0.1c0.6,0,1.2-0.2,1.6-0.5c0.2-0.1,0.4-0.2,0.5-0.2s0.3,0.1,0.5,0.2
		c0.6,0.4,1.3,1,2.1,1.8c0.2,0.2,0.2,0.3,0.2,0.5c0,0.2-0.1,0.4-0.3,0.6c-0.4,0.3-0.7,0.7-0.9,1.1C105.2,86.1,103.8,88.5,102.3,90.5
		z"/>
	<path class="st3" d="M112.7,85.4c0.6-0.3,1.4-0.7,2.4-1.2c0.1-0.1,0.2-0.1,0.3-0.1c0.2,0,0.3,0.1,0.5,0.3c1.2,1.5,2.1,3,2.6,4.4
		c0.1,0.3,0.1,0.4,0.1,0.5c0,0.1-0.1,0.3-0.4,0.4c-0.6,0.4-1.3,0.7-1.9,0.9c-0.1,0-0.2,0.1-0.3,0.1c-0.2,0-0.4-0.2-0.5-0.5
		C114.8,88.4,113.9,86.8,112.7,85.4z M128.2,83.1c1.5,0.5,2.6,0.9,3.4,1.4c0.3,0.2,0.4,0.4,0.4,0.5c0,0.2-0.1,0.3-0.3,0.5
		c-0.2,0.2-0.5,0.7-0.9,1.5c-1.3,3.1-2.8,5.7-4.5,8c-1.9,2.4-3.9,4.3-6.2,5.8c-0.3,0.2-0.5,0.3-0.7,0.3c-0.2,0-0.3-0.1-0.5-0.2
		c-0.7-0.5-1.5-1-2.5-1.3c1.9-1.3,3.4-2.4,4.5-3.3c1-0.9,1.9-1.8,2.7-2.9c1.8-2.3,3.1-4.7,4.1-7.2C127.9,85.3,128.1,84.2,128.2,83.1
		z M118.8,83.8c1.3-0.6,2.1-1,2.4-1.1c0.1-0.1,0.2-0.1,0.3-0.1c0.2,0,0.3,0.1,0.5,0.3c1,1.3,1.8,2.8,2.3,4.4c0,0.1,0.1,0.3,0.1,0.4
		c0,0.2-0.1,0.3-0.4,0.5c-0.6,0.3-1.3,0.6-2.1,0.9c-0.1,0-0.1,0-0.2,0c-0.2,0-0.3-0.2-0.4-0.5C120.5,86.8,119.7,85.2,118.8,83.8z"/>
	<path class="st3" d="M137,79c1.3,0.1,3.2,0.2,5.8,0.2h10.7c0.8,0,1.3-0.1,1.7-0.3c0.1-0.1,0.3-0.1,0.5-0.1c0.1,0,0.3,0,0.6,0.1
		c0.8,0.5,1.6,1.2,2.2,2c0.1,0.2,0.2,0.3,0.2,0.5c0,0.3-0.1,0.5-0.4,0.7c-0.2,0.2-0.4,0.6-0.7,1.2c-1.6,3.9-3.5,7.1-5.8,9.8
		c-2.7,3.1-5.5,5.5-8.5,7.1c-0.3,0.2-0.5,0.3-0.8,0.3s-0.5-0.1-0.7-0.3c-0.6-0.6-1.6-1.1-2.8-1.6c2.3-1.2,4.3-2.4,5.8-3.6
		c1.4-1.1,2.7-2.4,4-3.9c2.3-2.6,4-5.4,5.1-8.6h-10.8c-1.2,0-2.9,0-5,0.1c-0.3,0-0.5-0.2-0.6-0.6C137.2,81.5,137.1,80.5,137,79z"/>
</g>
<g class="st2">
	<path class="st3" d="M46.7,122v9.9c0,1.8,0,3.8,0.1,6.2c0,0,0,0.1,0,0.1c0,0.3-0.2,0.4-0.5,0.4c-0.5,0-1,0-1.5,0s-1,0-1.5,0
		c-0.3,0-0.4-0.1-0.4-0.4c0,0,0-0.1,0-0.1c0-0.5,0-1.6,0.1-3.3c0-1.1,0-2.1,0-2.8v-7c-3,2.5-5.8,4.5-8.2,5.8
		c-0.1,0.1-0.3,0.1-0.5,0.1c-0.2,0-0.4-0.1-0.6-0.3c-0.6-0.6-1.4-1.2-2.6-1.8c3.5-1.8,6.7-3.9,9.4-6.2c2.4-2,4.6-4.1,6.4-6.3
		c0.9-1,1.5-2.1,1.9-3.1c1.6,0.9,2.7,1.6,3.3,2.1c0.2,0.1,0.2,0.3,0.2,0.4c0,0.3-0.1,0.5-0.4,0.7c-0.4,0.3-1,0.8-1.8,1.7
		C49.1,119.4,48,120.7,46.7,122z"/>
	<path class="st3" d="M57.3,118.8c0.5-0.6,1.2-1.4,2.1-2.3c0.1-0.2,0.3-0.2,0.4-0.2c0.1,0,0.2,0,0.4,0.1c1.9,1,3.8,2.4,5.7,4.3
		c0.2,0.2,0.3,0.3,0.3,0.4s-0.1,0.2-0.2,0.4c-0.7,0.9-1.3,1.6-1.9,2.3c-0.2,0.2-0.3,0.2-0.4,0.2c-0.1,0-0.2-0.1-0.4-0.2
		C61.6,121.8,59.5,120.2,57.3,118.8z M57.9,133.8c1.6-0.4,3-0.9,4.1-1.5c1.9-1,3.5-1.9,4.8-2.8c1.1-0.7,2.4-1.7,3.8-2.8
		c2-1.6,3.6-3,4.8-4.2c1.1-1.1,2.3-2.4,3.4-3.9c0.2,1.3,0.4,2.5,0.8,3.5c0.1,0.2,0.1,0.4,0.1,0.6c0,0.2-0.2,0.5-0.5,0.9
		c-1.7,2-4,4.2-6.9,6.4c-2.5,1.9-5.5,3.9-9.1,5.9c-1.1,0.6-1.7,1.1-2,1.4c-0.2,0.2-0.4,0.3-0.5,0.3s-0.3-0.1-0.5-0.3
		C59.4,136.1,58.6,135,57.9,133.8z"/>
	<path class="st3" d="M99.6,128.5c1.3,1.1,2.4,2.1,3.2,3c0.1,0.1,0.2,0.3,0.2,0.4c0,0.1-0.1,0.3-0.2,0.4c-0.6,0.7-1.2,1.4-1.9,1.9
		c-0.1,0.1-0.3,0.1-0.4,0.1c-0.1,0-0.2-0.1-0.3-0.2c-0.8-1-1.8-1.9-2.9-2.9c-2.9,3.1-6,5.6-9.6,7.5c-0.3,0.2-0.6,0.3-0.7,0.3
		s-0.4-0.1-0.6-0.3c-0.8-0.6-1.7-1.2-2.9-1.5c2.5-1.3,4.6-2.6,6.3-3.9c1.6-1.2,3.1-2.6,4.7-4.3c-1.3-1-2.7-2-4.3-2.8
		c1.2-1.3,1.9-2,2-2.1c0.1-0.1,0.3-0.2,0.4-0.2c0,0,0.1,0,0.3,0.1c0.9,0.4,2.1,1.2,3.9,2.4c1.3-1.7,2.5-3.7,3.5-5.9l-7.4,0.1
		c-2.4,3.1-4.5,5.3-6.4,6.8c-0.3,0.2-0.5,0.3-0.6,0.3c-0.2,0-0.3-0.1-0.5-0.2c-0.7-0.5-1.5-1-2.5-1.4c2.1-1.7,3.9-3.4,5.3-5
		c1.1-1.3,2.2-2.7,3.2-4.4c0.9-1.5,1.4-2.7,1.6-3.7c1.8,0.6,3,1.1,3.5,1.5c0.2,0.1,0.3,0.3,0.3,0.5c0,0.2-0.1,0.4-0.4,0.6
		c-0.2,0.1-0.4,0.4-0.6,0.6c-0.2,0.4-0.5,0.9-0.9,1.5l5.3-0.1c0.6,0,1.2-0.2,1.6-0.5c0.2-0.1,0.4-0.2,0.5-0.2s0.3,0.1,0.5,0.2
		c0.6,0.4,1.3,1,2.1,1.8c0.2,0.2,0.2,0.3,0.2,0.5c0,0.2-0.1,0.4-0.3,0.6c-0.4,0.3-0.7,0.7-0.9,1.1C102.5,124.1,101,126.5,99.6,128.5
		z"/>
	<path class="st3" d="M115.8,123.8c2.8-0.9,5.2-1.9,7.3-2.9c1.4-0.7,2.5-1.4,3.2-2.2c0.8,0.7,1.7,1.6,2.5,2.7
		c0.2,0.2,0.2,0.4,0.2,0.5c0,0.3-0.2,0.5-0.5,0.5c-0.4,0.1-1.2,0.4-2.5,1c-2.9,1.3-6.3,2.5-10.3,3.7v4c0,0.8,0.1,1.3,0.2,1.6
		c0.1,0.3,0.4,0.4,0.8,0.6c0.8,0.2,2.1,0.3,3.8,0.3c2.6,0,5.5-0.2,8.5-0.7c0.1,0,0.1,0,0.2,0c0.2,0,0.3,0.1,0.4,0.4
		c0.1,1.1,0.2,2,0.2,2.6c0,0.3-0.2,0.5-0.6,0.5c-2.9,0.4-5.9,0.5-8.9,0.5c-2.5,0-4.5-0.3-5.7-0.8c-1.4-0.6-2.1-2.1-2.1-4.5v-11.1
		c0-2.4-0.1-4.2-0.3-5.5c1.8,0.2,3,0.4,3.8,0.6c0.3,0.1,0.5,0.2,0.5,0.5c0,0.2-0.1,0.4-0.2,0.6c-0.2,0.4-0.3,1.3-0.3,2.7V123.8z
		 M126.7,116.3l1.6-1.1c0.1,0,0.1-0.1,0.2-0.1c0.1,0,0.2,0,0.3,0.1c1,0.8,2,1.9,2.8,3.2c0.1,0.1,0.1,0.1,0.1,0.2
		c0,0.1-0.1,0.2-0.2,0.3l-1.3,0.9c-0.1,0.1-0.2,0.1-0.2,0.1c-0.1,0-0.2-0.1-0.3-0.2C128.8,118.3,127.8,117.2,126.7,116.3z
		 M129.5,114.3l1.5-1.1c0.1,0,0.1-0.1,0.2-0.1c0.1,0,0.2,0,0.3,0.1c1.2,0.9,2.1,1.9,2.9,3.1c0.1,0.1,0.1,0.2,0.1,0.2
		c0,0.1-0.1,0.2-0.2,0.3l-1.2,0.9c-0.1,0.1-0.2,0.1-0.2,0.1c-0.1,0-0.2-0.1-0.3-0.2C131.6,116.4,130.6,115.3,129.5,114.3z"/>
	<path class="st3" d="M151.8,133.6h1.4l3.6,0c0.1,0,0.1,0,0.2,0c0.3,0,0.5,0.2,0.5,0.5c0,0.3,0,0.6,0,1c0,0.3,0,0.6,0,0.9
		c0,0.3,0,0.4-0.1,0.5s-0.2,0.1-0.4,0.1l-4.2,0h-11c-1.6,0-2.9,0-3.9,0.1c-0.3,0-0.5-0.2-0.5-0.6c-0.1-0.5-0.1-1.4-0.1-2.5
		c1.1,0.1,2.6,0.1,4.3,0.1h7l1-7.3h-4.8c-0.6,0-1.7,0-3.3,0.1c0,0-0.1,0-0.1,0c-0.2,0-0.4-0.2-0.4-0.6c-0.1-0.4-0.1-1.3-0.2-2.6
		c2.2,0.1,3.6,0.1,4.2,0.1h4.1c0.8,0,1.4-0.1,1.8-0.3c0.1-0.1,0.2-0.1,0.3-0.1c0.1,0,0.2,0.1,0.5,0.2c0.8,0.6,1.4,1.1,1.8,1.7
		c0.2,0.2,0.3,0.4,0.3,0.5c0,0.2-0.1,0.4-0.3,0.5c-0.3,0.3-0.5,0.8-0.6,1.5L151.8,133.6z"/>
	<path class="st3" d="M161.3,124.3c1.6,0.2,3.7,0.4,6.5,0.4h9.7c0.9,0,2.2,0,3.7,0c1.9,0,3,0,3.2-0.1c0,0,0.1,0,0.1,0
		c0.3,0,0.4,0.1,0.4,0.4c0,0.5,0,0.9,0,1.4c0,0.5,0,0.9,0,1.4c0,0.3-0.1,0.5-0.4,0.5h-0.1c-3,0-5.2-0.1-6.7-0.1h-10.8l-4.4,0.4
		c-0.4,0-0.6-0.2-0.7-0.6C161.6,127.2,161.4,126,161.3,124.3z"/>
</g>
</svg>
