<svg xmlns="http://www.w3.org/2000/svg" width="238.229" height="48.67" viewBox="0 0 238.229 48.67">
  <g id="グループ_427" data-name="グループ 427" transform="translate(-368.515 -3029.932)">
    <path id="パス_237" data-name="パス 237" d="M385.527,3030.208h9.054l8.7,36.7-1.141.854,13.406-37.554h8.079l-17.012,47.654h-9.124l-8.829-36.143,1.141-.852-13.207,37h-8.079Z" transform="translate(0 0.216)" fill="#006fdb"/>
    <path id="パス_238" data-name="パス 238" d="M420.338,3030.208h8.323l-17.022,47.686h-8.323Zm-10.894,40.177h29.774l-2.68,7.51H406.764Zm7.107-19.909H442.5l-2.669,7.48H413.882Zm7.235-20.267h29.774l-2.682,7.51H421.1Z" transform="translate(27.249 0.216)" fill="#006fdb"/>
    <path id="パス_239" data-name="パス 239" d="M469.2,3030.208h6.267l-2.321,34.6,20.082-34.6h8.6l-29.038,47.686h-8.114l2.737-33.321-21.473,33.321h-8.113l5.008-47.686h8.6l-4.621,34.6Z" transform="translate(54.274 0.216)" fill="#006fdb"/>
    <path id="パス_240" data-name="パス 240" d="M483.831,3077.931a21.618,21.618,0,0,1-5.6-1.985,15.17,15.17,0,0,1-4.22-3.247l6.658-6.266a13.177,13.177,0,0,0,5.306,3.527,20.74,20.74,0,0,0,7.285,1.2,18.928,18.928,0,0,0,8.5-1.706,8.584,8.584,0,0,0,4.523-4.821l.012-.032a4.008,4.008,0,0,0-.007-3.493,4.608,4.608,0,0,0-2.594-1.9,33.663,33.663,0,0,0-4.786-1.132.588.588,0,0,0-.2-.034.651.651,0,0,1-.2-.03l-.592-.1a41.648,41.648,0,0,1-7.69-1.871,7.28,7.28,0,0,1-4.19-3.869q-1.305-2.787.524-7.9l.009-.032a20.055,20.055,0,0,1,4.923-7.741,21.791,21.791,0,0,1,8.013-4.885A31.125,31.125,0,0,1,510,3029.932a23.636,23.636,0,0,1,5.246.574,21.557,21.557,0,0,1,4.766,1.671,19.186,19.186,0,0,1,4.124,2.74l-6.348,6.462a15.8,15.8,0,0,0-4.889-2.985,15.483,15.483,0,0,0-5.556-1.018,17.452,17.452,0,0,0-8.027,1.656,8.371,8.371,0,0,0-4.3,4.674l-.012.034a3.879,3.879,0,0,0,.082,3.574,5.1,5.1,0,0,0,2.71,1.919,46.9,46.9,0,0,0,5.231,1.294,2.218,2.218,0,0,0,.244.05,2.162,2.162,0,0,1,.242.05c.111.022.228.042.362.064s.25.046.358.066a32.825,32.825,0,0,1,7.091,2.133,7.351,7.351,0,0,1,3.85,4q1.137,2.754-.558,7.511l-.023.064a19.277,19.277,0,0,1-4.957,7.642,22.238,22.238,0,0,1-8.2,4.837,33.336,33.336,0,0,1-10.83,1.656A32.244,32.244,0,0,1,483.831,3077.931Z" transform="translate(82.606)" fill="#006fdb"/>
  </g>
</svg>
