<svg xmlns="http://www.w3.org/2000/svg" width="403.655" height="48.671" viewBox="0 0 403.655 48.671">
  <g id="グループ_406" data-name="グループ 406" transform="translate(-370.59 -1859.932)">
    <path id="パス_219" data-name="パス 219" d="M374.835,1906.455a9,9,0,0,1-4.038-6.15,18.447,18.447,0,0,1,1.207-9.479l4.671-13.085a28.091,28.091,0,0,1,5.559-9.479,24.915,24.915,0,0,1,18.766-8.33,14.519,14.519,0,0,1,7.615,1.837,9.762,9.762,0,0,1,4.274,5.3,16.451,16.451,0,0,1,.44,8.181h-8.567a8.273,8.273,0,0,0-.551-4.015,5.541,5.541,0,0,0-2.279-2.641,7.058,7.058,0,0,0-3.694-.92,12.334,12.334,0,0,0-5.436,1.232,13.931,13.931,0,0,0-4.5,3.493,16.628,16.628,0,0,0-3.056,5.346l-4.673,13.085a11.182,11.182,0,0,0-.758,5.347,5.01,5.01,0,0,0,2.015,3.475,7.632,7.632,0,0,0,4.565,1.214,11.526,11.526,0,0,0,4.372-.885,14.9,14.9,0,0,0,4.146-2.593,17.078,17.078,0,0,0,3.416-4.1h8.566a33.34,33.34,0,0,1-6.317,8.184,27.153,27.153,0,0,1-8.054,5.3,22.724,22.724,0,0,1-8.892,1.836A15.887,15.887,0,0,1,374.835,1906.455Z" transform="translate(0 0)" fill="#006fdb"/>
    <path id="パス_220" data-name="パス 220" d="M406.6,1906.422a9.409,9.409,0,0,1-4.17-6.166,17.068,17.068,0,0,1,1.032-9.234l4.823-13.511a26.6,26.6,0,0,1,5.559-9.232,26.021,26.021,0,0,1,8.573-6.166,24.947,24.947,0,0,1,10.286-2.181,15.686,15.686,0,0,1,8.73,2.181,9.406,9.406,0,0,1,4.17,6.166,17.076,17.076,0,0,1-1.032,9.232l-4.823,13.511a26.62,26.62,0,0,1-5.559,9.234,26.088,26.088,0,0,1-8.574,6.166,24.968,24.968,0,0,1-10.286,2.181A15.694,15.694,0,0,1,406.6,1906.422Zm16.956-6.773a13.7,13.7,0,0,0,4.561-3.361,14.98,14.98,0,0,0,2.981-5.035l4.987-13.972a9.74,9.74,0,0,0,.613-5.033,4.968,4.968,0,0,0-2.161-3.363,8.123,8.123,0,0,0-4.609-1.18,13.057,13.057,0,0,0-5.454,1.18,13.745,13.745,0,0,0-4.561,3.363,15,15,0,0,0-2.981,5.033l-4.987,13.972a9.767,9.767,0,0,0-.613,5.035,4.966,4.966,0,0,0,2.161,3.361,8.127,8.127,0,0,0,4.611,1.18A13.045,13.045,0,0,0,423.553,1899.649Z" transform="translate(24.723 0)" fill="#006fdb"/>
    <path id="パス_221" data-name="パス 221" d="M483.825,1860.208h9.612L476.415,1907.9h-7.8l12.982-36.372-.4,2.1-21.179,28.306h-6.686l-1.205-27.647,1.332-2.755L440.475,1907.9h-7.8l17.024-47.687h9.611l.9,31.812Z" transform="translate(48.612 0.216)" fill="#006fdb"/>
    <path id="パス_222" data-name="パス 222" d="M487.669,1860.208h8.323L478.97,1907.9h-8.323Zm-3.734,21.677h16.193a8.874,8.874,0,0,0,3.846-.868,10.185,10.185,0,0,0,3.252-2.477,11.175,11.175,0,0,0,2.175-3.707,7.585,7.585,0,0,0,.5-3.739,3.682,3.682,0,0,0-1.478-2.49,5.383,5.383,0,0,0-3.236-.886H488.994l2.68-7.51h15.951a13.806,13.806,0,0,1,7.5,1.82,8,8,0,0,1,3.635,5.131,13.67,13.67,0,0,1-.792,7.674,21.487,21.487,0,0,1-4.682,7.66,22.057,22.057,0,0,1-16.081,6.9H481.256Z" transform="translate(78.345 0.216)" fill="#006fdb"/>
    <path id="パス_223" data-name="パス 223" d="M535.652,1860.208h6.06l1.99,47.687h-8.949l-.415-35.519L508.564,1907.9h-8.949Zm-21.175,31.124h26.642l-2.682,7.51H511.795Z" transform="translate(101.028 0.216)" fill="#006fdb"/>
    <path id="パス_224" data-name="パス 224" d="M552.066,1860.208h9.054l8.7,36.7-1.141.854,13.406-37.553h8.079l-17.012,47.654h-9.124l-8.828-36.144,1.139-.852-13.207,37h-8.079Z" transform="translate(128.777 0.216)" fill="#006fdb"/>
    <path id="パス_225" data-name="パス 225" d="M589.3,1889l-6.745,18.893h-8.287L581.012,1889l-4.9-28.793h8.949l2.874,21.021,17.882-21.021h8.949Z" transform="translate(159.482 0.216)" fill="#006fdb"/>
  </g>
</svg>
