<svg xmlns="http://www.w3.org/2000/svg" width="426.593" height="48.671" viewBox="0 0 426.593 48.671">
  <g id="グループ_408" data-name="グループ 408" transform="translate(-368.508 -2388.932)">
    <path id="パス_226" data-name="パス 226" d="M385.532,2389.208h8.287L376.8,2436.894h-8.289Zm-10.2,40.274h14.94a13.128,13.128,0,0,0,7.091-1.722,9.142,9.142,0,0,0,3.841-4.8l.034-.1a6.982,6.982,0,0,0,.465-3.641,3.3,3.3,0,0,0-1.751-2.313,8.425,8.425,0,0,0-4.033-.8H380.11l2.623-7.346h15.812a10.31,10.31,0,0,0,5.82-1.574,8.862,8.862,0,0,0,3.438-4.562q1.054-2.949-.317-4.475t-5.1-1.524H387.065l2.644-7.412h16.124a16.217,16.217,0,0,1,7.751,1.557,6.748,6.748,0,0,1,3.534,4.445,12.289,12.289,0,0,1-.747,6.92,14.869,14.869,0,0,1-2.8,4.773,16.116,16.116,0,0,1-4.522,3.59,18.359,18.359,0,0,1-5.943,1.967,8.847,8.847,0,0,1,4.795,1.984,6.42,6.42,0,0,1,2.1,3.969,11.19,11.19,0,0,1-.708,5.394l-.036.1a18.742,18.742,0,0,1-4.292,6.9,19.525,19.525,0,0,1-6.868,4.509,23.469,23.469,0,0,1-8.694,1.574H372.687Z" transform="translate(0 0.216)" fill="#006fdb"/>
    <path id="パス_227" data-name="パス 227" d="M407.575,2435.3a8.6,8.6,0,0,1-4.033-6.068q-.7-3.984,1.3-9.594l10.866-30.434h8.323l-10.948,30.664q-1.661,4.657-.014,7.216t6.312,2.559a13.489,13.489,0,0,0,8.191-2.559,14.818,14.818,0,0,0,5.153-7.216l10.948-30.664h8.323l-10.866,30.434a28.6,28.6,0,0,1-5.567,9.594,23.829,23.829,0,0,1-8.382,6.068,26.333,26.333,0,0,1-10.564,2.082Q410.906,2437.386,407.575,2435.3Z" transform="translate(27.289 0.216)" fill="#006fdb"/>
    <path id="パス_228" data-name="パス 228" d="M443.28,2436.93a21.627,21.627,0,0,1-5.6-1.985,15.17,15.17,0,0,1-4.22-3.247l6.658-6.265a13.191,13.191,0,0,0,5.306,3.527,20.75,20.75,0,0,0,7.287,1.2,18.926,18.926,0,0,0,8.5-1.707,8.583,8.583,0,0,0,4.523-4.821l.013-.032a4.007,4.007,0,0,0-.007-3.493,4.608,4.608,0,0,0-2.594-1.9,33.6,33.6,0,0,0-4.784-1.132.6.6,0,0,0-.2-.034.652.652,0,0,1-.2-.031l-.592-.1a41.632,41.632,0,0,1-7.69-1.87,7.277,7.277,0,0,1-4.19-3.869q-1.3-2.787.524-7.9l.011-.032a20.033,20.033,0,0,1,4.921-7.742,21.794,21.794,0,0,1,8.015-4.885,31.113,31.113,0,0,1,10.486-1.673,23.6,23.6,0,0,1,5.246.574,21.569,21.569,0,0,1,4.766,1.671,19.13,19.13,0,0,1,4.124,2.741l-6.346,6.462a15.818,15.818,0,0,0-4.891-2.985,15.472,15.472,0,0,0-5.556-1.018,17.442,17.442,0,0,0-8.027,1.657,8.368,8.368,0,0,0-4.3,4.673l-.012.034a3.885,3.885,0,0,0,.082,3.575,5.1,5.1,0,0,0,2.712,1.918,46.747,46.747,0,0,0,5.23,1.294c.086.021.168.039.244.05a2.165,2.165,0,0,1,.244.05c.109.021.228.042.36.064s.25.046.358.066a32.837,32.837,0,0,1,7.093,2.132,7.356,7.356,0,0,1,3.848,4q1.139,2.755-.558,7.511l-.021.065a19.3,19.3,0,0,1-4.958,7.642,22.235,22.235,0,0,1-8.2,4.837,33.336,33.336,0,0,1-10.83,1.656A32.256,32.256,0,0,1,443.28,2436.93Z" transform="translate(50.861)" fill="#006fdb"/>
    <path id="パス_229" data-name="パス 229" d="M473.87,2436.894h-8.5l17.022-47.686h8.5Z" transform="translate(75.846 0.216)" fill="#006fdb"/>
    <path id="パス_230" data-name="パス 230" d="M500.4,2389.208h9.054l8.7,36.7-1.141.854,13.406-37.553H538.5l-17.012,47.654h-9.124l-8.829-36.143,1.141-.853-13.207,37h-8.079Z" transform="translate(89.953 0.216)" fill="#006fdb"/>
    <path id="パス_231" data-name="パス 231" d="M535.214,2389.208h8.323l-17.022,47.686h-8.323Zm-10.894,40.177h29.774l-2.68,7.509H521.638Zm7.107-19.909h25.944l-2.669,7.479H528.758Zm7.235-20.268h29.774l-2.682,7.51H535.981Z" transform="translate(117.202 0.216)" fill="#006fdb"/>
    <path id="パス_232" data-name="パス 232" d="M558.039,2436.93a21.629,21.629,0,0,1-5.6-1.985,15.17,15.17,0,0,1-4.22-3.247l6.658-6.265a13.178,13.178,0,0,0,5.306,3.527,20.75,20.75,0,0,0,7.287,1.2,18.926,18.926,0,0,0,8.5-1.707,8.584,8.584,0,0,0,4.523-4.821l.013-.032a4.007,4.007,0,0,0-.007-3.493,4.608,4.608,0,0,0-2.594-1.9,33.563,33.563,0,0,0-4.785-1.132.589.589,0,0,0-.2-.034.653.653,0,0,1-.2-.031l-.592-.1a41.592,41.592,0,0,1-7.69-1.87,7.277,7.277,0,0,1-4.19-3.869q-1.305-2.787.524-7.9l.011-.032a20.031,20.031,0,0,1,4.921-7.742,21.8,21.8,0,0,1,8.013-4.885,31.13,31.13,0,0,1,10.487-1.673,23.608,23.608,0,0,1,5.246.574,21.57,21.57,0,0,1,4.766,1.671,19.179,19.179,0,0,1,4.124,2.741L592,2400.379a15.813,15.813,0,0,0-4.889-2.985,15.474,15.474,0,0,0-5.556-1.018,17.443,17.443,0,0,0-8.027,1.657,8.369,8.369,0,0,0-4.3,4.673l-.012.034a3.88,3.88,0,0,0,.082,3.575,5.1,5.1,0,0,0,2.71,1.918,46.892,46.892,0,0,0,5.231,1.294,2.4,2.4,0,0,0,.244.05,2.058,2.058,0,0,1,.242.05c.111.021.228.042.362.064s.25.046.358.066a32.817,32.817,0,0,1,7.091,2.132,7.353,7.353,0,0,1,3.849,4q1.137,2.755-.558,7.511l-.023.065a19.278,19.278,0,0,1-4.957,7.642,22.233,22.233,0,0,1-8.2,4.837,33.336,33.336,0,0,1-10.83,1.656A32.245,32.245,0,0,1,558.039,2436.93Z" transform="translate(140.717)" fill="#006fdb"/>
    <path id="パス_233" data-name="パス 233" d="M589.469,2436.93a21.58,21.58,0,0,1-5.6-1.985,15.179,15.179,0,0,1-4.222-3.247l6.66-6.265a13.184,13.184,0,0,0,5.3,3.527,20.756,20.756,0,0,0,7.287,1.2,18.914,18.914,0,0,0,8.5-1.707,8.581,8.581,0,0,0,4.525-4.821l.012-.032a4.007,4.007,0,0,0-.007-3.493,4.608,4.608,0,0,0-2.594-1.9,33.633,33.633,0,0,0-4.786-1.132.6.6,0,0,0-.2-.034.64.64,0,0,1-.2-.031l-.592-.1a41.6,41.6,0,0,1-7.69-1.87,7.286,7.286,0,0,1-4.192-3.869q-1.3-2.787.524-7.9l.011-.032a20.058,20.058,0,0,1,4.923-7.742,21.786,21.786,0,0,1,8.013-4.885,31.13,31.13,0,0,1,10.488-1.673,23.579,23.579,0,0,1,5.244.574,21.583,21.583,0,0,1,4.768,1.671,19.175,19.175,0,0,1,4.124,2.741l-6.347,6.462a15.813,15.813,0,0,0-4.889-2.985,15.472,15.472,0,0,0-5.556-1.018,17.443,17.443,0,0,0-8.027,1.657,8.362,8.362,0,0,0-4.3,4.673l-.013.034a3.88,3.88,0,0,0,.082,3.575,5.1,5.1,0,0,0,2.71,1.918,46.9,46.9,0,0,0,5.231,1.294c.086.021.166.039.243.05a2.094,2.094,0,0,1,.244.05c.111.021.228.042.36.064s.252.046.36.066a32.846,32.846,0,0,1,7.091,2.132,7.344,7.344,0,0,1,3.848,4q1.139,2.755-.556,7.511l-.023.065a19.3,19.3,0,0,1-4.957,7.642,22.242,22.242,0,0,1-8.205,4.837,33.32,33.32,0,0,1-10.83,1.656A32.226,32.226,0,0,1,589.469,2436.93Z" transform="translate(165.325)" fill="#006fdb"/>
  </g>
</svg>
