<svg id="グループ_622" data-name="グループ 622" xmlns="http://www.w3.org/2000/svg" width="365.333" height="48.67" viewBox="0 0 365.333 48.67">
  <path id="パス_361" data-name="パス 361" d="M-335.457,1860.189h8.323l-17.035,47.72h-8.323Zm-3.88,20.531h17.447a7.5,7.5,0,0,0,3.368-.8,9.074,9.074,0,0,0,2.887-2.281,11.488,11.488,0,0,0,2-3.443,7.294,7.294,0,0,0,.485-3.411,3.3,3.3,0,0,0-1.259-2.279,4.542,4.542,0,0,0-2.83-.806H-334.69l2.682-7.51h17.691a12.285,12.285,0,0,1,6.9,1.739,7.494,7.494,0,0,1,3.275,4.919,13.694,13.694,0,0,1-.829,7.348,21.4,21.4,0,0,1-4.427,7.38,20.7,20.7,0,0,1-6.807,4.918,19.6,19.6,0,0,1-8.123,1.738h-17.691Zm10.069,6.035,9.175-1.51,5.212,22.664h-9.994Z" transform="translate(352.492 -1859.731)" fill="#006fdb"/>
  <path id="パス_362" data-name="パス 362" d="M-302.594,1860.208h8.323l-17.024,47.686h-8.323Zm-10.9,40.176h29.776l-2.682,7.51H-316.17Zm7.109-19.909h25.943l-2.669,7.48H-309.05Zm7.234-20.267h29.774l-2.68,7.51h-29.776Z" transform="translate(378.232 -1859.716)" fill="#006fdb"/>
  <path id="パス_363" data-name="パス 363" d="M-282.585,1906.454a9,9,0,0,1-4.038-6.15,18.444,18.444,0,0,1,1.207-9.478l4.671-13.085a28.127,28.127,0,0,1,5.559-9.479,25,25,0,0,1,8.435-6.165,24.972,24.972,0,0,1,10.332-2.165,14.532,14.532,0,0,1,7.615,1.836,9.77,9.77,0,0,1,4.272,5.3,16.448,16.448,0,0,1,.44,8.18h-8.567a8.274,8.274,0,0,0-.551-4.015,5.544,5.544,0,0,0-2.279-2.64,7.061,7.061,0,0,0-3.694-.92,12.332,12.332,0,0,0-5.436,1.232,13.9,13.9,0,0,0-4.5,3.493,16.6,16.6,0,0,0-3.058,5.346l-4.671,13.085a11.161,11.161,0,0,0-.76,5.347,5.009,5.009,0,0,0,2.015,3.475,7.629,7.629,0,0,0,4.565,1.214,11.525,11.525,0,0,0,4.372-.884,14.93,14.93,0,0,0,4.147-2.593,17.11,17.11,0,0,0,3.414-4.1h8.566a33.34,33.34,0,0,1-6.317,8.184,27.152,27.152,0,0,1-8.054,5.3,22.728,22.728,0,0,1-8.892,1.836A15.883,15.883,0,0,1-282.585,1906.454Z" transform="translate(403.905 -1859.932)" fill="#006fdb"/>
  <path id="パス_364" data-name="パス 364" d="M-240.33,1860.189h8.323l-17.035,47.72h-8.323Zm-3.88,20.531h17.447a7.5,7.5,0,0,0,3.368-.8,9.074,9.074,0,0,0,2.887-2.281,11.488,11.488,0,0,0,2-3.443,7.293,7.293,0,0,0,.485-3.411,3.3,3.3,0,0,0-1.259-2.279,4.542,4.542,0,0,0-2.83-.806h-17.447l2.682-7.51h17.691a12.288,12.288,0,0,1,6.9,1.739,7.494,7.494,0,0,1,3.275,4.919,13.693,13.693,0,0,1-.829,7.348,21.4,21.4,0,0,1-4.427,7.38,20.714,20.714,0,0,1-6.807,4.918,19.6,19.6,0,0,1-8.123,1.738h-17.691Zm10.069,6.035,9.175-1.51,5.212,22.664h-9.994Z" transform="translate(426.977 -1859.731)" fill="#006fdb"/>
  <path id="パス_365" data-name="パス 365" d="M-218.044,1906.3a8.589,8.589,0,0,1-4.033-6.067q-.7-3.985,1.3-9.594l10.866-30.434h8.323l-10.948,30.664q-1.661,4.656-.014,7.216t6.312,2.558a13.485,13.485,0,0,0,8.191-2.558,14.833,14.833,0,0,0,5.153-7.216l10.948-30.664h8.323l-10.866,30.434a28.609,28.609,0,0,1-5.567,9.594,23.83,23.83,0,0,1-8.382,6.067A26.333,26.333,0,0,1-209,1908.386Q-214.712,1908.386-218.044,1906.3Z" transform="translate(454.465 -1859.716)" fill="#006fdb"/>
  <path id="パス_366" data-name="パス 366" d="M-183.179,1907.894h-8.5l17.022-47.686h8.5Z" transform="translate(478.412 -1859.716)" fill="#006fdb"/>
  <path id="パス_367" data-name="パス 367" d="M-154.05,1864.109h8.287l-15.63,43.785h-8.287Zm-12.675-3.9H-130.3l-2.682,7.51h-36.425Z" transform="translate(495.634 -1859.716)" fill="#006fdb"/>
</svg>
