<svg xmlns="http://www.w3.org/2000/svg" width="200" height="26.639" viewBox="0 0 200 26.639">
  <g id="グループ_911" data-name="グループ 911" transform="translate(-348.575 -73.466)">
    <g id="グループ_27" data-name="グループ 27" transform="translate(348.575 73.466)">
      <path id="パス_23" data-name="パス 23" d="M373.894,73.466a13.319,13.319,0,1,0,13.319,13.319A13.319,13.319,0,0,0,373.894,73.466Zm0,25.219a11.9,11.9,0,1,1,11.9-11.9A11.9,11.9,0,0,1,373.894,98.685Z" transform="translate(-360.575 -73.466)" fill="#006fdb"/>
      <path id="パス_24" data-name="パス 24" d="M371.2,96.922a7.158,7.158,0,0,1-1.3-3.231,5.883,5.883,0,0,1,1.36-3.655l.021-1.3h-1.962l-.014,6.015s-3.606-5.462-3.911-5.873a.906.906,0,0,0-.719-.285,11.53,11.53,0,0,0,.025,9.353h.5l.085-6.291,3.911,6.263s1.53.085,1.842.085S371.451,97.46,371.2,96.922Z" transform="translate(-361.904 -79.919)" fill="#006fdb"/>
      <path id="パス_25" data-name="パス 25" d="M395.926,89.481l-1.3,5.045L393.2,89h-1.849l-1.509,5.441L388.7,88.893l-1.956-.042,1.956,9.373h2.1l1.445-5.356,1.445,5.313h1.743l.828-2.095a11.539,11.539,0,0,0-.338-6.606Z" transform="translate(-371.741 -80.031)" fill="#006fdb"/>
      <ellipse id="楕円形_6" data-name="楕円形 6" cx="2.508" cy="2.997" rx="2.508" ry="2.997" transform="translate(10.114 10.393)" fill="#006fdb"/>
      <path id="パス_26" data-name="パス 26" d="M368.181,83.874a.723.723,0,0,0,1.016-.11,11.05,11.05,0,0,1,3.751-2.888,13.657,13.657,0,0,1,4.449-.923.723.723,0,0,0-.006-1.445h-.006a14.908,14.908,0,0,0-4.988,1.033,12.363,12.363,0,0,0-4.326,3.319A.722.722,0,0,0,368.181,83.874Z" transform="translate(-363.705 -75.617)" fill="#006fdb"/>
      <path id="パス_27" data-name="パス 27" d="M388.764,81.1a.871.871,0,1,0-.871-.871A.872.872,0,0,0,388.764,81.1Z" transform="translate(-372.231 -75.981)" fill="#006fdb"/>
      <path id="パス_28" data-name="パス 28" d="M391.226,106.064a.723.723,0,0,0-1.016.11,11.056,11.056,0,0,1-3.751,2.888,13.637,13.637,0,0,1-4.449.923.723.723,0,0,0,.006,1.445h.006a14.9,14.9,0,0,0,4.988-1.032,12.36,12.36,0,0,0,4.326-3.319A.722.722,0,0,0,391.226,106.064Z" transform="translate(-369.416 -87.307)" fill="#006fdb"/>
      <path id="パス_29" data-name="パス 29" d="M376.938,111.651a.871.871,0,1,0,.871.871A.871.871,0,0,0,376.938,111.651Z" transform="translate(-367.185 -89.759)" fill="#006fdb"/>
    </g>
    <g id="グループ_31" data-name="グループ 31" transform="translate(385.53 80.471)">
      <path id="パス_30" data-name="パス 30" d="M435.284,99.893h-1.759l-7.157-12.531V99.367h-1.333V86h2.089l6.828,11.954V85.974h1.333Z" transform="translate(-425.034 -85.807)" fill="#006fdb"/>
      <path id="パス_31" data-name="パス 31" d="M567.114,99.91h-1.759L558.2,87.379V99.385h-1.333V86.014h2.089l6.828,11.954V87.175h1.333Z" transform="translate(-481.284 -85.825)" fill="#006fdb"/>
      <path id="パス_32" data-name="パス 32" d="M588.044,100.583h-1.333v-12.1h-.1l-9.1,11.912h-2.458V87.659h1.333v11.4h.466l9.1-11.912h2.095Z" transform="translate(-489.046 -86.309)" fill="#006fdb"/>
      <g id="グループ_28" data-name="グループ 28" transform="translate(10.759 0.166)">
        <path id="パス_33" data-name="パス 33" d="M450.647,99.869H443.8v-13.9h6.846v1.333h-5.513v11.23h5.513Z" transform="translate(-443.801 -85.974)" fill="#006fdb"/>
        <rect id="長方形_19" data-name="長方形 19" width="6.047" height="1.333" transform="translate(0.752 6.164)" fill="#006fdb"/>
      </g>
      <g id="グループ_29" data-name="グループ 29" transform="translate(67.206 0.166)">
        <path id="パス_34" data-name="パス 34" d="M549.1,99.869h-6.846v-13.9H549.1v1.333h-5.513v11.23H549.1Z" transform="translate(-542.258 -85.974)" fill="#006fdb"/>
        <rect id="長方形_20" data-name="長方形 20" width="6.047" height="1.333" transform="translate(0.753 6.164)" fill="#006fdb"/>
      </g>
      <path id="パス_35" data-name="パス 35" d="M468.627,99.91h-2.342l1.5-12.591-8.609,12.45h-1.722V86.54h1.333V97.987l8.376-12.114H469.3l-1.512,12.7h.152l9.141-12.894,1.087.771Z" transform="translate(-438.867 -85.684)" fill="#006fdb"/>
      <path id="パス_36" data-name="パス 36" d="M629.46,99.91h-2.342l1.5-12.59-8.609,12.449h-1.722V86.54h1.333V97.987L628,85.873h2.135l-1.511,12.7h.152l9.141-12.894,1.087.771Z" transform="translate(-507.492 -85.684)" fill="#006fdb"/>
      <path id="パス_37" data-name="パス 37" d="M504.545,99.975a7.1,7.1,0,1,1,7.1-7.1A7.1,7.1,0,0,1,504.545,99.975Zm0-12.861a5.764,5.764,0,1,0,5.764,5.764A5.77,5.77,0,0,0,504.545,87.115Z" transform="translate(-455.932 -85.726)" fill="#006fdb"/>
      <path id="パス_38" data-name="パス 38" d="M646.922,99.975a7.1,7.1,0,1,1,7.1-7.1A7.1,7.1,0,0,1,646.922,99.975Zm0-12.861a5.764,5.764,0,1,0,5.764,5.764A5.77,5.77,0,0,0,646.922,87.115Z" transform="translate(-516.683 -85.726)" fill="#006fdb"/>
      <path id="パス_39" data-name="パス 39" d="M672.125,100.876l-3.761-7.035,1.083-.08c.142-.011,3.5-.3,3.5-2.794,0-2.734-1.76-3.333-2.439-3.333h-4.014v12.9H665.16V86.3h5.347c1.458,0,3.772,1.267,3.772,4.666,0,2.431-2.056,3.557-3.7,3.957l2.689,5.143Z" transform="translate(-527.493 -85.947)" fill="#006fdb"/>
      <path id="パス_40" data-name="パス 40" d="M529.749,100.876l-3.762-7.035,1.082-.08c.142-.011,3.5-.3,3.5-2.794,0-2.734-1.76-3.333-2.438-3.333h-4.014v12.9h-1.333V86.3h5.347c1.458,0,3.772,1.267,3.772,4.666,0,2.431-2.056,3.557-3.7,3.957l2.689,5.143Z" transform="translate(-466.743 -85.947)" fill="#006fdb"/>
      <rect id="長方形_21" data-name="長方形 21" width="1.333" height="14.034" transform="translate(65.111 0.285)" fill="#006fdb"/>
      <rect id="長方形_22" data-name="長方形 22" width="8.375" height="1.333" transform="translate(81.299 0.495)" fill="#006fdb"/>
      <rect id="長方形_23" data-name="長方形 23" width="6.571" height="1.333" transform="translate(91.666 8.432)" fill="#006fdb"/>
      <path id="パス_41" data-name="パス 41" d="M604.859,100.9h-5.937V87.47h1.333v12.1h4.6Z" transform="translate(-499.23 -86.446)" fill="#006fdb"/>
      <rect id="長方形_24" data-name="長方形 24" width="1.333" height="13.3" transform="translate(146.819 1.287)" fill="#006fdb"/>
      <rect id="長方形_25" data-name="長方形 25" width="10.928" height="1.333" transform="matrix(0.669, -0.744, 0.744, 0.669, 147.116, 9.155)" fill="#006fdb"/>
      <rect id="長方形_26" data-name="長方形 26" width="1.333" height="8.438" transform="translate(149.025 8.216) rotate(-37.296)" fill="#006fdb"/>
      <path id="パス_42" data-name="パス 42" d="M708.548,93.236" transform="translate(-546.006 -88.906)" fill="#006fdb"/>
      <g id="グループ_30" data-name="グループ 30" transform="translate(156.022 0.383)">
        <path id="パス_43" data-name="パス 43" d="M698.739,100.7a2.481,2.481,0,0,1-1.174-1.126,4.081,4.081,0,0,1-.39-1.885v-.714h1.418v.714a2.1,2.1,0,0,0,.525,1.558,2.189,2.189,0,0,0,1.593.516,1.826,1.826,0,0,0,2.068-2.074v-.853a2.18,2.18,0,0,0-.31-1.186,2.793,2.793,0,0,0-.794-.823,10.362,10.362,0,0,0-1.244-.709.265.265,0,0,1-.055-.025l-.045-.025-.14-.069a14.1,14.1,0,0,1-1.583-.883,3.423,3.423,0,0,1-1.01-1.066,3.108,3.108,0,0,1-.414-1.661v-.7a3.964,3.964,0,0,1,.39-1.855,2.463,2.463,0,0,1,1.168-1.111,4.6,4.6,0,0,1,1.957-.367,4.3,4.3,0,0,1,1.9.373,2.454,2.454,0,0,1,1.139,1.121,4.144,4.144,0,0,1,.38,1.88v.754H702.7v-.754a2.145,2.145,0,0,0-.5-1.547,2,2,0,0,0-1.5-.516,2.23,2.23,0,0,0-1.573.491,1.927,1.927,0,0,0-.524,1.473v.7a1.9,1.9,0,0,0,.33,1.131,2.821,2.821,0,0,0,.814.769,14.317,14.317,0,0,0,1.334.709l.154.075c.05.023.1.048.155.074l.075.035a.412.412,0,0,1,.065.034,8.587,8.587,0,0,1,1.383.839,3.316,3.316,0,0,1,.924,1.116,3.548,3.548,0,0,1,.36,1.667v.913a4.1,4.1,0,0,1-.385,1.88,2.49,2.49,0,0,1-1.159,1.125,4.43,4.43,0,0,1-1.943.377A4.6,4.6,0,0,1,698.739,100.7Z" transform="translate(-697.176 -86.352)" fill="#006fdb"/>
      </g>
    </g>
  </g>
</svg>
