<svg xmlns="http://www.w3.org/2000/svg" width="703.133" height="72.111" viewBox="0 0 703.133 72.111">
  <g id="グループ_499" data-name="グループ 499" transform="translate(-284.51 -177.304)">
    <g id="グループ_502" data-name="グループ 502">
      <path id="パス_282" data-name="パス 282" d="M293.979,203.607l2.371-11.26h7.712l5.577-14.036H320.9l-5.731,14.036h14.5c-4.083,15.732-7.148,24.063-12.385,33.549l4.237,3.317-3.279,15.578-9.373-7.866c-9.765,7.557-14.572,9.871-24.357,12.031l2.6-12.34c4.944-.772,9.315-2.854,14.12-6.633l-5.4-4.01c-2.4-1.774-3.279-3.47-2.841-5.552.211-1,.211-1,1.635-4.473l4.834-12.34Zm16.581,0L304.7,217.18l3.937,2.545c2.521-3.549,4.716-8.484,7.249-16.118Zm14.966,4.01h12.262l1.428-6.787a123.136,123.136,0,0,0,10.3-10.1H331.241l2.371-11.261h33.164l-2.241,10.643c-4.21,4.242-4.3,4.319-13.541,13.034l-.942,4.473h13.42l-2.4,11.413H347.649l-3.265,15.5c-1.8,9.64-4.664,12.262-13.411,12.417H320.562l2.371-11.26h8.947l3.508-16.659H323.123Z" transform="translate(0 0.459)" fill="#006fdb"/>
      <path id="パス_283" data-name="パス 283" d="M383.634,204.6l-.657-7.866-25.087.463,2.452-11.646,21.627-.154-.711-7.249h13.959l.683,7.017,21.368-.384-2.42,11.491-18.189.309.767,7.712,18.636-.232L413.5,216.25l-15.4.233.613,10.642H384.831l-.661-10.412-33.029.463,2.58-12.262Zm-15.084,17.43c-3.437,5.707-3.563,5.938-3.9,7.557-.633,3.008,3.145,4.473,11.629,4.473,8.715,0,17.235-.54,30.853-1.851l-2.743,13.034c-12.3.925-18.538,1.233-26.636,1.233-11.336,0-17.376-.617-21.586-2.237a10.268,10.268,0,0,1-6.385-11.8,23.367,23.367,0,0,1,5.972-10.412Z" transform="translate(29.666 0.387)" fill="#006fdb"/>
    </g>
    <path id="パス_284" data-name="パス 284" d="M426.3,196.689v14.5H411.256v-14.5Z" transform="translate(57.817 8.843)" fill="#006fdb"/>
    <g id="グループ_500" data-name="グループ 500">
      <path id="パス_285" data-name="パス 285" d="M449.662,226.065l8.476-46.12,18.932-2.005L474.7,189.2h-6.863l-1.114,6.017h6.247l-2.144,10.18h-6.168l-.979,5.012h6.093l-2.127,10.1h-5.938l-1.015,5.552h7.636l10.066-47.816h27.533L495.86,226.065h6.554l1.4-5.552h-5.166l2.256-10.722h5.477l1.129-4.626h-5.631l2.159-10.257h5.94l1.273-5.321h-6.091l2.387-11.338h10.8c4.44.154,5.918,1.928,4.98,6.015l-.47,2.237-.13.617-9.049,38.947h4.087l-2.142,10.18H503.974a80.538,80.538,0,0,0,6.238,11.029h-16.35a39.93,39.93,0,0,1-4.542-11.029H469.885a108.327,108.327,0,0,1-9.649,11.029H443.269a72.009,72.009,0,0,0,11.576-11.029H442.815l2.143-10.18Zm38.408,0,8.054-38.253H483.167l-8.054,38.253Zm5.715-34.475-1.851,8.792H482.14l1.851-8.792Zm-2.436,11.569L487.972,219.2c-.584,2.777-1.908,3.935-4.513,3.856h-6.093l4.188-19.9Zm-6.481,12.108,1.1-5.244H484.2l-1.1,5.244Z" transform="translate(72.213 0.29)" fill="#006fdb"/>
      <path id="パス_286" data-name="パス 286" d="M543.189,181.777l-10.1,47.97a54.707,54.707,0,0,0,15.28-15.424H537.725l2.225-10.566h13.882l1.315-6.247H543.579l2.337-11.106h11.569l1.916-9.1h12.415l-1.916,9.1h13.42l-2.339,11.106H567.563l-1.316,6.247h15.425l-2.224,10.566h-11.26c1.49,6.478,4.141,11.106,8.406,14.653l-3.215,15.269c-5.8-2.853-9.583-8.328-12.019-17.274L556.977,247.8H544.56l3.962-18.818c-5.134,7.172-12.478,13.11-19.245,15.578l2.451-11.645c-3.177,4.473-5.487,5.552-11.579,5.552H504.184l11.935-56.685Zm-20.717,45.656,7.094-33.7h-4.4l-7.1,33.7Z" transform="translate(100.207)" fill="#006fdb"/>
    </g>
    <path id="パス_287" data-name="パス 287" d="M586.791,196.689v14.5H571.752v-14.5Z" transform="translate(131.029 8.843)" fill="#006fdb"/>
    <g id="グループ_501" data-name="グループ 501">
      <path id="パス_288" data-name="パス 288" d="M612.571,194.942h21.751l.714-3.393H617.914l2.044-9.718h17.123l.942-4.473H651.6l-.941,4.473H665l2.947-4.473h15.039l-2.639,4.473h3.624l-2.046,9.718h-8.792l-3.875,3.393H683.68l-2.078,9.871H656.692l-4.848,3.24h25.605l-2.014,9.563H634.329l-1.421,3.086h38.639l-.52,2.467a81.752,81.752,0,0,1-3.965,13.343c-2.944,7.019-8.967,10.72-17.6,10.72h-36.4l2.371-11.26h28.3c7.681.154,9.183-.384,10.981-4.163H614.376l4.65-9.641a84.6,84.6,0,0,1-12.252,2.159l2.6-12.339c12.6-1.621,16.934-2.777,27.114-7.173H610.494Zm39.951,0,3.875-3.393H648.61l-.715,3.393Z" transform="translate(147.004 0.024)" fill="#006fdb"/>
      <path id="パス_289" data-name="パス 289" d="M677.867,197.585l51-.463-2.388,11.338-14.224,8.947c1.637-.077,3.428-.154,4.275-.154,4.165,0,5.134,1.619,4.047,6.787l-1.851,8.791c1.912.079,3.454.079,4.38.079,2.312,0,4.026-.079,8.007-.309l-2.873,13.65c-4.2.154-6.372.232-8.533.232-8.021,0-11.039-.309-13.451-1.312-2.764-1.156-3.333-2.853-2.343-7.557l.679-2.853a15.311,15.311,0,0,0,.418-1.621c.763-3.624-.211-4.858-3.836-4.858-3.24,0-6.522,1.311-15.957,6.556-6.02,3.316-8.224,4.626-13.659,8.1-4.907,3.161-4.907,3.161-7.98,4.935l3.279-15.578c1.676-1,2.825-1.7,3.166-1.851,2.375-1.389,4.826-2.777,7.278-4.165,13.44-7.79,22.115-12.725,29.173-16.581h-5.167c-3.163,0-4.242,0-18.943.23l-7.113.079ZM730.289,179l-2.6,12.34-43.054.463,2.566-12.185Z" transform="translate(172.917 0.773)" fill="#006fdb"/>
      <path id="パス_290" data-name="パス 290" d="M737.239,191.54l2.484-11.8H787.23l-2.386,11.336-20.335,10.875a49.1,49.1,0,0,1,6.822-.539c11.338,0,18.343,8.482,16.006,19.588a31.6,31.6,0,0,1-11.576,18.355c-6.406,4.782-14.681,7.1-25.4,7.1-16.35,0-23.948-4.936-21.952-14.422,1.656-7.866,9.88-13.96,18.9-13.96,8.715,0,14.426,5.477,12.964,12.417a33.129,33.129,0,0,1-.929,3.317c5.049-.54,7.651-1.542,9.928-3.933a16.45,16.45,0,0,0,4.219-7.945c1.412-6.709-2.529-10.334-11.245-10.334-7.866,0-14.962,1.466-23.977,5.091a71.636,71.636,0,0,0-15.632,7.943l2.825-13.419c.715-.463,2.716-1.542,2.887-1.621,2.835-1.388,5.705-2.93,8.559-4.395,1.985-1,5.1-2.623,8.484-4.4,9.2-4.859,10.237-5.4,19.322-9.718Zm10.57,43.574c.243-4.087-.788-5.784-3.719-5.784-1.7,0-2.768.693-3.061,2.082-.454,2.159,1.75,3.779,5.143,3.779h1Z" transform="translate(199.857 1.112)" fill="#006fdb"/>
    </g>
  </g>
</svg>
