<svg xmlns="http://www.w3.org/2000/svg" width="108" height="108" viewBox="0 0 108 108">
  <g id="グループ_1319" data-name="グループ 1319" transform="translate(-1326 -1781)">
    <circle id="楕円形_8" data-name="楕円形 8" cx="54" cy="54" r="54" transform="translate(1326 1781)" fill="#006fdb"/>
    <g id="グループ_556" data-name="グループ 556" transform="translate(1351.928 1745.367)">
      <path id="パス_348" data-name="パス 348" d="M127.692,72.811a7.827,7.827,0,0,1-4.835,1.265,32.364,32.364,0,0,0-13.186,1.163c-4.266,1.551-12.022,6.4-14.348,7.175s-2.521,3.878,2.714,4.459,9.889-2.715,11.053-3.3S121.5,84.74,121.5,84.74l3.538.872L133.2,96.64c1.431-1.244,4.263-3.883,4.98-5.888a8.2,8.2,0,0,1,1.077-2l.09.123C141.262,84.584,133.028,70.927,127.692,72.811Z" transform="translate(-83.481)" fill="#fff"/>
      <path id="パス_349" data-name="パス 349" d="M139.31,194l-1.714-.173c-2.25-.348-8.611-1.254-11-1.254-.1,0-.188,0-.25,0l-.316.182c-1.7.987-5.665,3.3-10.288,3.3a13.691,13.691,0,0,1-1.508-.083,12.564,12.564,0,0,1-1.991-.375,4.756,4.756,0,0,1,2.771,3.485,4.764,4.764,0,0,1,6,4.654c0,.013,0,.025,0,.038a4.77,4.77,0,0,1,4.756,4.82,4.842,4.842,0,0,1-.191,1.28A4.726,4.726,0,0,1,128,211.2a4.774,4.774,0,0,1-.073,6.743l-.942.92H127a3.529,3.529,0,0,0,3.285-2.559,3.768,3.768,0,0,0,6.06-3.61,3.778,3.778,0,0,0,6.264-2.848,3.78,3.78,0,0,0,5.235-3.49c0-1.586-.776-2.618-2.618-4.75Z" transform="translate(-99.933 -106.784)" fill="#fff"/>
      <path id="パス_350" data-name="パス 350" d="M48.4,238.459a2.442,2.442,0,0,0-3.453-.038l-3.489,3.415a2.441,2.441,0,1,0,3.414,3.489l3.49-3.414A2.441,2.441,0,0,0,48.4,238.459Z" transform="translate(-36.256 -146.987)" fill="#fff"/>
      <path id="パス_351" data-name="パス 351" d="M92.9,272.376a2.439,2.439,0,0,0-3.452-.038L84.8,276.89a2.442,2.442,0,0,0,3.416,3.49l4.652-4.552A2.44,2.44,0,0,0,92.9,272.376Z" transform="translate(-74.846 -177.185)" fill="#fff"/>
      <path id="パス_352" data-name="パス 352" d="M136.25,316.681a2.44,2.44,0,0,0-3.452-.038l-4.653,4.553a2.441,2.441,0,1,0,3.415,3.489l4.653-4.552A2.441,2.441,0,0,0,136.25,316.681Z" transform="translate(-113.439 -216.631)" fill="#fff"/>
      <path id="パス_353" data-name="パス 353" d="M184.733,371.359a2.44,2.44,0,0,0-3.452-.038l-2.714,2.656a2.441,2.441,0,0,0,3.415,3.49l2.714-2.656A2.442,2.442,0,0,0,184.733,371.359Z" transform="translate(-158.332 -265.314)" fill="#fff"/>
      <path id="パス_354" data-name="パス 354" d="M10.4,89.685a4.848,4.848,0,0,1,1.075.126C8.539,88.686,8.053,86.63,7.976,85.9a4.256,4.256,0,0,1,3.129-4.424,54.3,54.3,0,0,0,5.147-2.629c2.274-1.24,4.769-2.6,6.941-3.6a31.109,31.109,0,0,0-6.707.1,7.526,7.526,0,0,1-4.552-1.107C6.6,72.359-1.635,86.016.285,90.309a7.924,7.924,0,0,1,.884,1.718A10.086,10.086,0,0,0,3.13,94.965a5.114,5.114,0,0,1,.442-.506l3.489-3.415A4.746,4.746,0,0,1,10.4,89.685Z" transform="translate(0 -1.275)" fill="#fff"/>
    </g>
  </g>
</svg>
