<svg xmlns="http://www.w3.org/2000/svg" width="108" height="108" viewBox="0 0 108 108">
  <g id="グループ_1318" data-name="グループ 1318" transform="translate(-906 -1776)">
    <circle id="楕円形_8" data-name="楕円形 8" cx="54" cy="54" r="54" transform="translate(906 1776)" fill="#006fdb"/>
    <g id="グループ_554" data-name="グループ 554" transform="translate(2.886 142.253)">
      <g id="グループ_553" data-name="グループ 553" transform="translate(929.195 1668.956)">
        <path id="パス_341" data-name="パス 341" d="M218.676,114.363V102.806a2.121,2.121,0,0,0-2.119-2.119h-6.174a2.12,2.12,0,0,0-2.119,2.119v11.558a2.118,2.118,0,0,0,2.119,2.117h6.174A2.119,2.119,0,0,0,218.676,114.363Z" transform="translate(-185.552 -95.834)" fill="#fff"/>
        <path id="パス_342" data-name="パス 342" d="M13.061,74.443a3.859,3.859,0,0,0,2.716.588l14.088.3V63.69L15.776,56.523a2.66,2.66,0,0,0-2.716.589,3.17,3.17,0,0,0-1.213,2.5l0,12.337A3.187,3.187,0,0,0,13.061,74.443Z" transform="translate(-10.554 -56.337)" fill="#fff"/>
        <path id="パス_343" data-name="パス 343" d="M351.734,74.289a3.181,3.181,0,0,0,1.215-2.5l0-12.337a3.176,3.176,0,0,0-1.215-2.5,2.576,2.576,0,0,0-2.716-.589l-14.087,7.168,0,11.644,14.088-.3A3.809,3.809,0,0,0,351.734,74.289Z" transform="translate(-298.406 -56.184)" fill="#fff"/>
        <path id="パス_344" data-name="パス 344" d="M24.008,258.463H12.832C8.061,264.593,0,268.087,0,268.087l6.406,3.6.578,8.3c8.773-4.772,14.871-14.354,17.758-21.515C24.721,258.473,24.452,258.471,24.008,258.463Z" transform="translate(0 -236.403)" fill="#fff"/>
        <path id="パス_345" data-name="パス 345" d="M297.049,258.463H285.874c-.443.008-.714.01-.733.008,2.887,7.161,8.983,16.743,17.758,21.515l.576-8.3,6.406-3.6S301.822,264.593,297.049,258.463Z" transform="translate(-254.045 -236.403)" fill="#fff"/>
      </g>
    </g>
  </g>
</svg>
