<svg xmlns="http://www.w3.org/2000/svg" width="108" height="108" viewBox="0 0 108 108">
  <g id="グループ_1317" data-name="グループ 1317" transform="translate(-486 -1781)">
    <circle id="楕円形_8" data-name="楕円形 8" cx="54" cy="54" r="54" transform="translate(486 1781)" fill="#006fdb"/>
    <g id="グループ_555" data-name="グループ 555" transform="translate(513.912 1773.485)">
      <path id="パス_346" data-name="パス 346" d="M168.034,51.368H154.283A2.43,2.43,0,0,1,152,48.107l2.774-7.627a2.43,2.43,0,0,0-2.285-3.261h-.365a7.3,7.3,0,0,0-6.051,3.22L133.234,57.8V75.594L144.7,79.989a17.975,17.975,0,0,0,2.232.535l10.2,1.287a7.292,7.292,0,0,0,6.917-4.987l5.2-15.594s2.583-1.787,2.583-4.288V54.585C171.833,52.725,169.964,51.368,168.034,51.368Z" transform="translate(-119.656)" fill="#fff"/>
      <path id="パス_347" data-name="パス 347" d="M8.646,214.625H1.217A1.216,1.216,0,0,0,0,215.842v23.3a1.216,1.216,0,0,0,1.217,1.213h7.43a1.215,1.215,0,0,0,1.215-1.213v-23.3A1.216,1.216,0,0,0,8.646,214.625Z" transform="translate(0 -159.327)" fill="#fff"/>
    </g>
  </g>
</svg>
