<svg xmlns="http://www.w3.org/2000/svg" width="417.2" height="55.567" viewBox="0 0 417.2 55.567">
  <g id="グループ_1294" data-name="グループ 1294" transform="translate(-359.998 -62.589)">
    <g id="グループ_457" data-name="グループ 457" transform="translate(-6.802 -4402)">
      <g id="グループ_452" data-name="グループ 452">
        <path id="パス_258" data-name="パス 258" d="M394.584,4464.589a27.783,27.783,0,1,0,27.784,27.784A27.784,27.784,0,0,0,394.584,4464.589Zm0,52.606a24.823,24.823,0,1,1,24.822-24.822A24.822,24.822,0,0,1,394.584,4517.195Z" fill="#fff"/>
        <path id="パス_259" data-name="パス 259" d="M386.184,4500.058c-.532-1.124-2.6-3.547-2.719-6.739s2.128-7.272,2.837-7.626l.044-2.719h-4.093l-.03,12.547s-7.522-11.4-8.158-12.252a1.89,1.89,0,0,0-1.5-.594,24.056,24.056,0,0,0,.052,19.511h1.035l.177-13.124,8.158,13.064s3.192.178,3.842.178S386.716,4501.181,386.184,4500.058Z" fill="#fff"/>
        <path id="パス_260" data-name="パス 260" d="M417.252,4484.3l-2.708,10.524-2.97-11.527h-3.858l-3.147,11.35-2.395-11.572-4.078-.089,4.078,19.553h4.39l3.014-11.173,3.015,11.084h3.636l1.727-4.37a24.093,24.093,0,0,0-.7-13.78Z" fill="#fff"/>
        <ellipse id="楕円形_7" data-name="楕円形 7" cx="5.232" cy="6.251" rx="5.232" ry="6.251" transform="translate(387.898 4486.269)" fill="#fff"/>
        <path id="パス_261" data-name="パス 261" d="M376.136,4481.813a1.509,1.509,0,0,0,2.119-.23,23.062,23.062,0,0,1,7.824-6.024,28.514,28.514,0,0,1,9.281-1.926,1.507,1.507,0,0,0-.013-3.015h-.014a31.119,31.119,0,0,0-10.4,2.154,25.81,25.81,0,0,0-9.025,6.923A1.508,1.508,0,0,0,376.136,4481.813Z" fill="#fff"/>
        <path id="パス_262" data-name="パス 262" d="M401.288,4475.274a1.818,1.818,0,1,0-1.818-1.818A1.817,1.817,0,0,0,401.288,4475.274Z" fill="#fff"/>
        <path id="パス_263" data-name="パス 263" d="M412.3,4503.716a1.508,1.508,0,0,0-2.119.23,23.067,23.067,0,0,1-7.824,6.024,28.46,28.46,0,0,1-9.281,1.925,1.508,1.508,0,0,0,.013,3.015h.014a31.116,31.116,0,0,0,10.4-2.153,25.788,25.788,0,0,0,9.025-6.924A1.507,1.507,0,0,0,412.3,4503.716Z" fill="#fff"/>
        <path id="パス_264" data-name="パス 264" d="M387.145,4510.255a1.818,1.818,0,1,0,1.817,1.818A1.818,1.818,0,0,0,387.145,4510.255Z" fill="#fff"/>
      </g>
      <g id="グループ_456" data-name="グループ 456">
        <path id="パス_265" data-name="パス 265" d="M465.269,4508.583H461.6l-14.93-26.14v25.043h-2.781V4479.6h4.357l14.243,24.936v-24.985h2.781Z" fill="#fff"/>
        <path id="パス_266" data-name="パス 266" d="M622.929,4508.583H619.26l-14.93-26.14v25.043h-2.781V4479.6h4.357l14.243,24.936v-22.516h2.781Z" fill="#fff"/>
        <path id="パス_267" data-name="パス 267" d="M650.4,4508.975h-2.781v-25.24H647.4l-18.976,24.848H623.3v-26.566h2.781V4505.8h.971l18.976-24.848H650.4Z" fill="#fff"/>
        <g id="グループ_453" data-name="グループ 453">
          <path id="パス_268" data-name="パス 268" d="M480.613,4508.534H466.333v-28.987h14.281v2.781h-11.5v23.425h11.5Z" fill="#fff"/>
          <rect id="長方形_499" data-name="長方形 499" width="12.613" height="2.781" transform="translate(467.902 4492.404)" fill="#fff"/>
        </g>
        <g id="グループ_454" data-name="グループ 454">
          <path id="パス_269" data-name="パス 269" d="M598.361,4508.534H584.081v-28.987h14.281v2.781h-11.5v23.425h11.5Z" fill="#fff"/>
          <rect id="長方形_500" data-name="長方形 500" width="12.613" height="2.781" transform="translate(585.65 4492.404)" fill="#fff"/>
        </g>
        <path id="パス_270" data-name="パス 270" d="M505.969,4508.877h-4.886l3.125-26.265-17.958,25.97h-3.591v-27.6h2.781v23.879l17.473-25.27h4.454l-3.154,26.5h.317l19.068-26.9,2.268,1.608Z" fill="#fff"/>
        <path id="パス_271" data-name="パス 271" d="M698.313,4508.877h-4.885l3.124-26.263-17.958,25.968H675v-27.6h2.781v23.879l17.474-25.27h4.453l-3.152,26.5h.316l19.068-26.9,2.268,1.608Z" fill="#fff"/>
        <path id="パス_272" data-name="パス 272" d="M545.295,4508.926a14.8,14.8,0,1,1,14.8-14.8A14.82,14.82,0,0,1,545.295,4508.926Zm0-26.828a12.023,12.023,0,1,0,12.023,12.024A12.037,12.037,0,0,0,545.295,4482.1Z" fill="#fff"/>
        <path id="パス_273" data-name="パス 273" d="M715.567,4508.926a14.8,14.8,0,1,1,14.8-14.8A14.82,14.82,0,0,1,715.567,4508.926Zm0-26.828a12.023,12.023,0,1,0,12.024,12.024A12.037,12.037,0,0,0,715.567,4482.1Z" fill="#fff"/>
        <path id="パス_274" data-name="パス 274" d="M745.591,4510.341l-7.847-14.673L740,4495.5c.295-.024,7.3-.632,7.3-5.828,0-5.7-3.672-6.952-5.088-6.952h-8.372v26.91h-2.781v-29.691h11.153c3.042,0,7.868,2.643,7.868,9.733,0,5.071-4.288,7.421-7.724,8.254l5.611,10.729Z" fill="#fff"/>
        <path id="パス_275" data-name="パス 275" d="M575.318,4510.341l-7.846-14.673,2.259-.168c.295-.024,7.3-.632,7.3-5.828,0-5.7-3.671-6.952-5.087-6.952h-8.372v26.91H560.79v-29.691h11.153c3.042,0,7.868,2.643,7.868,9.733,0,5.071-4.288,7.421-7.724,8.254l5.61,10.729Z" fill="#fff"/>
        <rect id="長方形_501" data-name="長方形 501" width="2.781" height="29.275" transform="translate(579.709 4479.795)" fill="#fff"/>
        <rect id="長方形_502" data-name="長方形 502" width="17.471" height="2.781" transform="translate(613.477 4480.233)" fill="#fff"/>
        <rect id="長方形_503" data-name="長方形 503" width="13.708" height="2.781" transform="translate(635.103 4496.789)" fill="#fff"/>
        <path id="パス_276" data-name="パス 276" d="M664.23,4509.358H651.847v-28.021h2.781v25.24h9.6Z" fill="#fff"/>
        <rect id="長方形_504" data-name="長方形 504" width="2.781" height="27.744" transform="translate(750.152 4481.886)" fill="#fff"/>
        <rect id="長方形_505" data-name="長方形 505" width="22.796" height="2.781" transform="matrix(0.669, -0.744, 0.744, 0.669, 750.772, 4498.297)" fill="#fff"/>
        <rect id="長方形_506" data-name="長方形 506" width="2.781" height="17.602" transform="translate(754.755 4496.338) rotate(-37.296)" fill="#fff"/>
        <path id="パス_277" data-name="パス 277" d="M782.951,4488.233" fill="#fff"/>
        <g id="グループ_455" data-name="グループ 455">
          <path id="パス_278" data-name="パス 278" d="M772.612,4509.934a5.174,5.174,0,0,1-2.448-2.348,8.525,8.525,0,0,1-.813-3.932v-1.49h2.959v1.49a4.374,4.374,0,0,0,1.094,3.249,4.566,4.566,0,0,0,3.323,1.076,3.807,3.807,0,0,0,4.314-4.325v-1.78a4.554,4.554,0,0,0-.646-2.473,5.852,5.852,0,0,0-1.657-1.717,21.654,21.654,0,0,0-2.594-1.48.6.6,0,0,1-.114-.052c-.035-.02-.066-.038-.094-.052l-.292-.144a29.536,29.536,0,0,1-3.3-1.842,7.151,7.151,0,0,1-2.106-2.224,6.491,6.491,0,0,1-.864-3.467v-1.47a8.278,8.278,0,0,1,.813-3.869,5.138,5.138,0,0,1,2.438-2.318,9.577,9.577,0,0,1,4.084-.766,8.973,8.973,0,0,1,3.959.777,5.126,5.126,0,0,1,2.375,2.337,8.645,8.645,0,0,1,.792,3.922v1.573h-2.959v-1.573a4.468,4.468,0,0,0-1.042-3.227,4.154,4.154,0,0,0-3.125-1.077,4.651,4.651,0,0,0-3.282,1.024,4.019,4.019,0,0,0-1.094,3.074v1.469a3.978,3.978,0,0,0,.688,2.359,5.878,5.878,0,0,0,1.7,1.6,30.009,30.009,0,0,0,2.782,1.48c.111.055.22.106.323.155s.212.1.324.154c.055.029.107.052.156.073a.84.84,0,0,1,.135.073,17.816,17.816,0,0,1,2.886,1.749,6.906,6.906,0,0,1,1.927,2.328,7.394,7.394,0,0,1,.751,3.476v1.9a8.544,8.544,0,0,1-.8,3.922,5.187,5.187,0,0,1-2.417,2.348,9.229,9.229,0,0,1-4.053.787A9.587,9.587,0,0,1,772.612,4509.934Z" fill="#fff"/>
        </g>
      </g>
    </g>
  </g>
</svg>
