<?xml version="1.0" encoding="UTF-8"?> <svg xmlns="http://www.w3.org/2000/svg" width="46.464" height="46.464" viewBox="0 0 46.464 46.464"><g id="グループ_27" data-name="グループ 27" transform="translate(-360.575 -73.466)"><path id="パス_23" data-name="パス 23" d="M383.807,73.466A23.232,23.232,0,1,0,407.039,96.7,23.232,23.232,0,0,0,383.807,73.466Zm0,43.988A20.756,20.756,0,1,1,404.563,96.7,20.756,20.756,0,0,1,383.807,117.454Z" fill="#006fdb"></path><path id="パス_24" data-name="パス 24" d="M376.783,103.124c-.445-.939-2.175-2.966-2.274-5.635s1.78-6.08,2.373-6.376l.037-2.274H373.5l-.025,10.491s-6.289-9.527-6.821-10.244a1.58,1.58,0,0,0-1.254-.5,20.112,20.112,0,0,0,.043,16.314h.865l.148-10.973,6.822,10.924s2.669.148,3.213.148S377.228,104.063,376.783,103.124Z" fill="#006fdb"></path><path id="パス_25" data-name="パス 25" d="M402.761,89.95l-2.264,8.8-2.484-9.639h-3.225l-2.632,9.49-2-9.676-3.411-.074,3.411,16.349h3.67l2.521-9.342,2.521,9.268h3.04l1.444-3.654a20.127,20.127,0,0,0-.589-11.522Z" fill="#006fdb"></path><ellipse id="楕円形_6" data-name="楕円形 6" cx="4.375" cy="5.227" rx="4.375" ry="5.227" transform="translate(378.217 91.594)" fill="#006fdb"></ellipse><path id="パス_26" data-name="パス 26" d="M368.382,87.868a1.261,1.261,0,0,0,1.772-.192,19.275,19.275,0,0,1,6.542-5.037,23.821,23.821,0,0,1,7.76-1.61,1.261,1.261,0,0,0-.011-2.521h-.011a26,26,0,0,0-8.7,1.8,21.563,21.563,0,0,0-7.546,5.789A1.26,1.26,0,0,0,368.382,87.868Z" fill="#006fdb"></path><path id="パス_27" data-name="パス 27" d="M389.413,82.4a1.52,1.52,0,1,0-1.52-1.52A1.521,1.521,0,0,0,389.413,82.4Z" fill="#006fdb"></path><path id="パス_28" data-name="パス 28" d="M398.618,106.183a1.262,1.262,0,0,0-1.772.192,19.285,19.285,0,0,1-6.543,5.037,23.787,23.787,0,0,1-7.76,1.61,1.261,1.261,0,0,0,.011,2.521h.011a25.988,25.988,0,0,0,8.7-1.8,21.56,21.56,0,0,0,7.546-5.79A1.26,1.26,0,0,0,398.618,106.183Z" fill="#006fdb"></path><path id="パス_29" data-name="パス 29" d="M377.586,111.651a1.52,1.52,0,1,0,1.52,1.52A1.519,1.519,0,0,0,377.586,111.651Z" fill="#006fdb"></path></g></svg> 